%TF.GenerationSoftware,KiCad,Pcbnew,6.0.2+dfsg-1*%
%TF.CreationDate,2022-09-19T17:12:00+02:00*%
%TF.ProjectId,p1-interface,70312d69-6e74-4657-9266-6163652e6b69,rev?*%
%TF.SameCoordinates,Original*%
%TF.FileFunction,Copper,L1,Top*%
%TF.FilePolarity,Positive*%
%FSLAX46Y46*%
G04 Gerber Fmt 4.6, Leading zero omitted, Abs format (unit mm)*
G04 Created by KiCad (PCBNEW 6.0.2+dfsg-1) date 2022-09-19 17:12:00*
%MOMM*%
%LPD*%
G01*
G04 APERTURE LIST*
G04 Aperture macros list*
%AMRoundRect*
0 Rectangle with rounded corners*
0 $1 Rounding radius*
0 $2 $3 $4 $5 $6 $7 $8 $9 X,Y pos of 4 corners*
0 Add a 4 corners polygon primitive as box body*
4,1,4,$2,$3,$4,$5,$6,$7,$8,$9,$2,$3,0*
0 Add four circle primitives for the rounded corners*
1,1,$1+$1,$2,$3*
1,1,$1+$1,$4,$5*
1,1,$1+$1,$6,$7*
1,1,$1+$1,$8,$9*
0 Add four rect primitives between the rounded corners*
20,1,$1+$1,$2,$3,$4,$5,0*
20,1,$1+$1,$4,$5,$6,$7,0*
20,1,$1+$1,$6,$7,$8,$9,0*
20,1,$1+$1,$8,$9,$2,$3,0*%
G04 Aperture macros list end*
%ADD10C,0.300000*%
%TA.AperFunction,NonConductor*%
%ADD11C,0.300000*%
%TD*%
%TA.AperFunction,NonConductor*%
%ADD12C,0.200000*%
%TD*%
%TA.AperFunction,SMDPad,CuDef*%
%ADD13RoundRect,0.150000X0.587500X0.150000X-0.587500X0.150000X-0.587500X-0.150000X0.587500X-0.150000X0*%
%TD*%
%TA.AperFunction,ComponentPad*%
%ADD14R,1.700000X1.700000*%
%TD*%
%TA.AperFunction,ComponentPad*%
%ADD15O,1.700000X1.700000*%
%TD*%
%TA.AperFunction,ComponentPad*%
%ADD16R,1.520000X1.520000*%
%TD*%
%TA.AperFunction,ComponentPad*%
%ADD17C,1.520000*%
%TD*%
%TA.AperFunction,SMDPad,CuDef*%
%ADD18RoundRect,0.250000X0.350000X0.450000X-0.350000X0.450000X-0.350000X-0.450000X0.350000X-0.450000X0*%
%TD*%
%TA.AperFunction,ViaPad*%
%ADD19C,0.800000*%
%TD*%
%TA.AperFunction,Conductor*%
%ADD20C,0.250000*%
%TD*%
%TA.AperFunction,Conductor*%
%ADD21C,0.500000*%
%TD*%
G04 APERTURE END LIST*
D10*
D11*
X129253571Y-93978571D02*
X128396428Y-93978571D01*
X128825000Y-93978571D02*
X128825000Y-92478571D01*
X128682142Y-92692857D01*
X128539285Y-92835714D01*
X128396428Y-92907142D01*
X129753571Y-92478571D02*
X130753571Y-92478571D01*
X130110714Y-93978571D01*
X131396428Y-93907142D02*
X131396428Y-93978571D01*
X131325000Y-94121428D01*
X131253571Y-94192857D01*
X132110714Y-93978571D02*
X132396428Y-93978571D01*
X132539285Y-93907142D01*
X132610714Y-93835714D01*
X132753571Y-93621428D01*
X132825000Y-93335714D01*
X132825000Y-92764285D01*
X132753571Y-92621428D01*
X132682142Y-92550000D01*
X132539285Y-92478571D01*
X132253571Y-92478571D01*
X132110714Y-92550000D01*
X132039285Y-92621428D01*
X131967857Y-92764285D01*
X131967857Y-93121428D01*
X132039285Y-93264285D01*
X132110714Y-93335714D01*
X132253571Y-93407142D01*
X132539285Y-93407142D01*
X132682142Y-93335714D01*
X132753571Y-93264285D01*
X132825000Y-93121428D01*
X134182142Y-92478571D02*
X133467857Y-92478571D01*
X133396428Y-93192857D01*
X133467857Y-93121428D01*
X133610714Y-93050000D01*
X133967857Y-93050000D01*
X134110714Y-93121428D01*
X134182142Y-93192857D01*
X134253571Y-93335714D01*
X134253571Y-93692857D01*
X134182142Y-93835714D01*
X134110714Y-93907142D01*
X133967857Y-93978571D01*
X133610714Y-93978571D01*
X133467857Y-93907142D01*
X133396428Y-93835714D01*
X135182142Y-92478571D02*
X135325000Y-92478571D01*
X135467857Y-92550000D01*
X135539285Y-92621428D01*
X135610714Y-92764285D01*
X135682142Y-93050000D01*
X135682142Y-93407142D01*
X135610714Y-93692857D01*
X135539285Y-93835714D01*
X135467857Y-93907142D01*
X135325000Y-93978571D01*
X135182142Y-93978571D01*
X135039285Y-93907142D01*
X134967857Y-93835714D01*
X134896428Y-93692857D01*
X134825000Y-93407142D01*
X134825000Y-93050000D01*
X134896428Y-92764285D01*
X134967857Y-92621428D01*
X135039285Y-92550000D01*
X135182142Y-92478571D01*
X136610714Y-92478571D02*
X136753571Y-92478571D01*
X136896428Y-92550000D01*
X136967857Y-92621428D01*
X137039285Y-92764285D01*
X137110714Y-93050000D01*
X137110714Y-93407142D01*
X137039285Y-93692857D01*
X136967857Y-93835714D01*
X136896428Y-93907142D01*
X136753571Y-93978571D01*
X136610714Y-93978571D01*
X136467857Y-93907142D01*
X136396428Y-93835714D01*
X136325000Y-93692857D01*
X136253571Y-93407142D01*
X136253571Y-93050000D01*
X136325000Y-92764285D01*
X136396428Y-92621428D01*
X136467857Y-92550000D01*
X136610714Y-92478571D01*
X138896428Y-93978571D02*
X138896428Y-92978571D01*
X138896428Y-93121428D02*
X138967857Y-93050000D01*
X139110714Y-92978571D01*
X139325000Y-92978571D01*
X139467857Y-93050000D01*
X139539285Y-93192857D01*
X139539285Y-93978571D01*
X139539285Y-93192857D02*
X139610714Y-93050000D01*
X139753571Y-92978571D01*
X139967857Y-92978571D01*
X140110714Y-93050000D01*
X140182142Y-93192857D01*
X140182142Y-93978571D01*
X140896428Y-93978571D02*
X140896428Y-92978571D01*
X140896428Y-93121428D02*
X140967857Y-93050000D01*
X141110714Y-92978571D01*
X141325000Y-92978571D01*
X141467857Y-93050000D01*
X141539285Y-93192857D01*
X141539285Y-93978571D01*
X141539285Y-93192857D02*
X141610714Y-93050000D01*
X141753571Y-92978571D01*
X141967857Y-92978571D01*
X142110714Y-93050000D01*
X142182142Y-93192857D01*
X142182142Y-93978571D01*
D12*
X126350000Y-90361162D02*
X126350000Y-95686420D01*
X144300000Y-90361162D02*
X144300000Y-95686420D01*
X126350000Y-95100000D02*
X144300000Y-95100000D01*
X126350000Y-95100000D02*
X144300000Y-95100000D01*
X126350000Y-95100000D02*
X127476504Y-95686421D01*
X126350000Y-95100000D02*
X127476504Y-94513579D01*
X144300000Y-95100000D02*
X143173496Y-94513579D01*
X144300000Y-95100000D02*
X143173496Y-95686421D01*
D10*
D11*
X118171428Y-82203571D02*
X118100000Y-82132142D01*
X118028571Y-81989285D01*
X118028571Y-81632142D01*
X118100000Y-81489285D01*
X118171428Y-81417857D01*
X118314285Y-81346428D01*
X118457142Y-81346428D01*
X118671428Y-81417857D01*
X119528571Y-82275000D01*
X119528571Y-81346428D01*
X119528571Y-80632142D02*
X119528571Y-80346428D01*
X119457142Y-80203571D01*
X119385714Y-80132142D01*
X119171428Y-79989285D01*
X118885714Y-79917857D01*
X118314285Y-79917857D01*
X118171428Y-79989285D01*
X118100000Y-80060714D01*
X118028571Y-80203571D01*
X118028571Y-80489285D01*
X118100000Y-80632142D01*
X118171428Y-80703571D01*
X118314285Y-80775000D01*
X118671428Y-80775000D01*
X118814285Y-80703571D01*
X118885714Y-80632142D01*
X118957142Y-80489285D01*
X118957142Y-80203571D01*
X118885714Y-80060714D01*
X118814285Y-79989285D01*
X118671428Y-79917857D01*
X119457142Y-79203571D02*
X119528571Y-79203571D01*
X119671428Y-79275000D01*
X119742857Y-79346428D01*
X118528571Y-77917857D02*
X119528571Y-77917857D01*
X117957142Y-78275000D02*
X119028571Y-78632142D01*
X119028571Y-77703571D01*
X118028571Y-76417857D02*
X118028571Y-77132142D01*
X118742857Y-77203571D01*
X118671428Y-77132142D01*
X118600000Y-76989285D01*
X118600000Y-76632142D01*
X118671428Y-76489285D01*
X118742857Y-76417857D01*
X118885714Y-76346428D01*
X119242857Y-76346428D01*
X119385714Y-76417857D01*
X119457142Y-76489285D01*
X119528571Y-76632142D01*
X119528571Y-76989285D01*
X119457142Y-77132142D01*
X119385714Y-77203571D01*
X118028571Y-75417857D02*
X118028571Y-75275000D01*
X118100000Y-75132142D01*
X118171428Y-75060714D01*
X118314285Y-74989285D01*
X118600000Y-74917857D01*
X118957142Y-74917857D01*
X119242857Y-74989285D01*
X119385714Y-75060714D01*
X119457142Y-75132142D01*
X119528571Y-75275000D01*
X119528571Y-75417857D01*
X119457142Y-75560714D01*
X119385714Y-75632142D01*
X119242857Y-75703571D01*
X118957142Y-75775000D01*
X118600000Y-75775000D01*
X118314285Y-75703571D01*
X118171428Y-75632142D01*
X118100000Y-75560714D01*
X118028571Y-75417857D01*
X118028571Y-73989285D02*
X118028571Y-73846428D01*
X118100000Y-73703571D01*
X118171428Y-73632142D01*
X118314285Y-73560714D01*
X118600000Y-73489285D01*
X118957142Y-73489285D01*
X119242857Y-73560714D01*
X119385714Y-73632142D01*
X119457142Y-73703571D01*
X119528571Y-73846428D01*
X119528571Y-73989285D01*
X119457142Y-74132142D01*
X119385714Y-74203571D01*
X119242857Y-74275000D01*
X118957142Y-74346428D01*
X118600000Y-74346428D01*
X118314285Y-74275000D01*
X118171428Y-74203571D01*
X118100000Y-74132142D01*
X118028571Y-73989285D01*
X119528571Y-71703571D02*
X118528571Y-71703571D01*
X118671428Y-71703571D02*
X118600000Y-71632142D01*
X118528571Y-71489285D01*
X118528571Y-71275000D01*
X118600000Y-71132142D01*
X118742857Y-71060714D01*
X119528571Y-71060714D01*
X118742857Y-71060714D02*
X118600000Y-70989285D01*
X118528571Y-70846428D01*
X118528571Y-70632142D01*
X118600000Y-70489285D01*
X118742857Y-70417857D01*
X119528571Y-70417857D01*
X119528571Y-69703571D02*
X118528571Y-69703571D01*
X118671428Y-69703571D02*
X118600000Y-69632142D01*
X118528571Y-69489285D01*
X118528571Y-69275000D01*
X118600000Y-69132142D01*
X118742857Y-69060714D01*
X119528571Y-69060714D01*
X118742857Y-69060714D02*
X118600000Y-68989285D01*
X118528571Y-68846428D01*
X118528571Y-68632142D01*
X118600000Y-68489285D01*
X118742857Y-68417857D01*
X119528571Y-68417857D01*
D12*
X126049926Y-90000000D02*
X120063580Y-90000000D01*
X126049926Y-60550000D02*
X120063580Y-60550000D01*
X120650000Y-90000000D02*
X120650000Y-60550000D01*
X120650000Y-90000000D02*
X120650000Y-60550000D01*
X120650000Y-90000000D02*
X121236421Y-88873496D01*
X120650000Y-90000000D02*
X120063579Y-88873496D01*
X120650000Y-60550000D02*
X120063579Y-61676504D01*
X120650000Y-60550000D02*
X121236421Y-61676504D01*
D13*
%TO.P,Q1,1,B*%
%TO.N,Net-(J1-Pad5)*%
X140637500Y-69550000D03*
%TO.P,Q1,2,E*%
%TO.N,GND*%
X140637500Y-67650000D03*
%TO.P,Q1,3,C*%
%TO.N,/rx*%
X138762500Y-68600000D03*
%TD*%
D14*
%TO.P,J2,1,Pin_1*%
%TO.N,Net-(J2-Pad1)*%
X128750000Y-62750000D03*
D15*
%TO.P,J2,2,Pin_2*%
%TO.N,+3V3*%
X131290000Y-62750000D03*
%TO.P,J2,3,Pin_3*%
X133830000Y-62750000D03*
%TO.P,J2,4,Pin_4*%
%TO.N,unconnected-(J2-Pad4)*%
X136370000Y-62750000D03*
%TO.P,J2,5,Pin_5*%
%TO.N,/rx*%
X138910000Y-62750000D03*
%TO.P,J2,6,Pin_6*%
%TO.N,GND*%
X141450000Y-62750000D03*
%TD*%
D16*
%TO.P,J1,1*%
%TO.N,+5V*%
X132030000Y-72530000D03*
D17*
%TO.P,J1,2*%
X133300000Y-75070000D03*
%TO.P,J1,3*%
%TO.N,GND*%
X134570000Y-72530000D03*
%TO.P,J1,4*%
%TO.N,unconnected-(J1-Pad4)*%
X135840000Y-75070000D03*
%TO.P,J1,5*%
%TO.N,Net-(J1-Pad5)*%
X137110000Y-72530000D03*
%TO.P,J1,6*%
%TO.N,GND*%
X138380000Y-75070000D03*
%TD*%
D18*
%TO.P,R1,1*%
%TO.N,Net-(J1-Pad5)*%
X135580000Y-69530000D03*
%TO.P,R1,2*%
%TO.N,+5V*%
X133580000Y-69530000D03*
%TD*%
D14*
%TO.P,J3,1,Pin_1*%
%TO.N,Net-(J2-Pad1)*%
X128750000Y-66600000D03*
D15*
%TO.P,J3,2,Pin_2*%
%TO.N,+5V*%
X131290000Y-66600000D03*
%TD*%
D18*
%TO.P,R2,1*%
%TO.N,/rx*%
X129850000Y-69550000D03*
%TO.P,R2,2*%
%TO.N,+3V3*%
X127850000Y-69550000D03*
%TD*%
D19*
%TO.N,GND*%
X129800000Y-88250000D03*
X139200000Y-65350000D03*
X141050000Y-88050000D03*
%TD*%
D20*
%TO.N,Net-(J1-Pad5)*%
X140637500Y-69550000D02*
X138620000Y-69550000D01*
X138620000Y-69550000D02*
X137110000Y-71060000D01*
%TO.N,/rx*%
X142734511Y-68225489D02*
X142360000Y-68600000D01*
X142360000Y-68600000D02*
X138762500Y-68600000D01*
D21*
%TO.N,+5V*%
X132030000Y-72530000D02*
X132030000Y-73800000D01*
X132030000Y-72530000D02*
X132030000Y-71080000D01*
X131290000Y-66600000D02*
X133580000Y-68890000D01*
X132030000Y-73800000D02*
X133300000Y-75070000D01*
D20*
X133580000Y-68890000D02*
X133580000Y-69530000D01*
D21*
X132030000Y-71080000D02*
X133580000Y-69530000D01*
D20*
%TO.N,GND*%
X134570000Y-72530000D02*
X135654511Y-73614511D01*
X135654511Y-73614511D02*
X136924511Y-73614511D01*
X136924511Y-73614511D02*
X138380000Y-75070000D01*
%TO.N,Net-(J1-Pad5)*%
X137110000Y-71060000D02*
X137110000Y-72530000D01*
X135580000Y-69530000D02*
X137110000Y-71060000D01*
D21*
%TO.N,Net-(J2-Pad1)*%
X128750000Y-62750000D02*
X128750000Y-66600000D01*
%TO.N,+3V3*%
X127150000Y-61750978D02*
X127150000Y-68850000D01*
X131290000Y-62750000D02*
X133830000Y-62750000D01*
X130090000Y-61550000D02*
X130090000Y-61440000D01*
X130090000Y-61550000D02*
X131290000Y-62750000D01*
X127150000Y-68850000D02*
X127850000Y-69550000D01*
X130090000Y-61440000D02*
X127460978Y-61440000D01*
X127460978Y-61440000D02*
X127150000Y-61750978D01*
D20*
%TO.N,/rx*%
X129850000Y-69550000D02*
X129924511Y-69475489D01*
X137735489Y-63924511D02*
X138910000Y-62750000D01*
X129924511Y-66125489D02*
X132125489Y-63924511D01*
X142734511Y-66574511D02*
X138910000Y-62750000D01*
X129924511Y-69475489D02*
X129924511Y-66125489D01*
X132125489Y-63924511D02*
X137735489Y-63924511D01*
X142734511Y-68225489D02*
X142734511Y-66574511D01*
%TD*%
%TA.AperFunction,Conductor*%
%TO.N,GND*%
G36*
X143734121Y-61078002D02*
G01*
X143780614Y-61131658D01*
X143792000Y-61184000D01*
X143792000Y-89417763D01*
X143771998Y-89485884D01*
X143718342Y-89532377D01*
X143666351Y-89543763D01*
X143561784Y-89544054D01*
X126983276Y-89590235D01*
X126915101Y-89570422D01*
X126868459Y-89516896D01*
X126856926Y-89464448D01*
X126843541Y-81554277D01*
X127985735Y-81554277D01*
X128023705Y-81842687D01*
X128100465Y-82123276D01*
X128214596Y-82390852D01*
X128363985Y-82640462D01*
X128366669Y-82643813D01*
X128366671Y-82643815D01*
X128381322Y-82662102D01*
X128545867Y-82867489D01*
X128756878Y-83067731D01*
X128993113Y-83237483D01*
X129250200Y-83373603D01*
X129254223Y-83375075D01*
X129254227Y-83375077D01*
X129278709Y-83384036D01*
X129523382Y-83473574D01*
X129807604Y-83535544D01*
X129836650Y-83537830D01*
X130033297Y-83553307D01*
X130033304Y-83553307D01*
X130035753Y-83553500D01*
X130193121Y-83553500D01*
X130195257Y-83553354D01*
X130195268Y-83553354D01*
X130405949Y-83538991D01*
X130405955Y-83538990D01*
X130410226Y-83538699D01*
X130414421Y-83537830D01*
X130414423Y-83537830D01*
X130552654Y-83509204D01*
X130695081Y-83479709D01*
X130969295Y-83382605D01*
X131227793Y-83249184D01*
X131231294Y-83246723D01*
X131231298Y-83246721D01*
X131346792Y-83165550D01*
X131465792Y-83081915D01*
X131678888Y-82883894D01*
X131689895Y-82870447D01*
X131860423Y-82662102D01*
X131863139Y-82658784D01*
X132015133Y-82410752D01*
X132023869Y-82390852D01*
X132130334Y-82148315D01*
X132132059Y-82144386D01*
X132138073Y-82123276D01*
X132157782Y-82054087D01*
X132211754Y-81864616D01*
X132214286Y-81846829D01*
X132252137Y-81580870D01*
X132252742Y-81576619D01*
X132252859Y-81554277D01*
X138145735Y-81554277D01*
X138183705Y-81842687D01*
X138260465Y-82123276D01*
X138374596Y-82390852D01*
X138523985Y-82640462D01*
X138526669Y-82643813D01*
X138526671Y-82643815D01*
X138541322Y-82662102D01*
X138705867Y-82867489D01*
X138916878Y-83067731D01*
X139153113Y-83237483D01*
X139410200Y-83373603D01*
X139414223Y-83375075D01*
X139414227Y-83375077D01*
X139438709Y-83384036D01*
X139683382Y-83473574D01*
X139967604Y-83535544D01*
X139996650Y-83537830D01*
X140193297Y-83553307D01*
X140193304Y-83553307D01*
X140195753Y-83553500D01*
X140353121Y-83553500D01*
X140355257Y-83553354D01*
X140355268Y-83553354D01*
X140565949Y-83538991D01*
X140565955Y-83538990D01*
X140570226Y-83538699D01*
X140574421Y-83537830D01*
X140574423Y-83537830D01*
X140712654Y-83509204D01*
X140855081Y-83479709D01*
X141129295Y-83382605D01*
X141387793Y-83249184D01*
X141391294Y-83246723D01*
X141391298Y-83246721D01*
X141506792Y-83165550D01*
X141625792Y-83081915D01*
X141838888Y-82883894D01*
X141849895Y-82870447D01*
X142020423Y-82662102D01*
X142023139Y-82658784D01*
X142175133Y-82410752D01*
X142183869Y-82390852D01*
X142290334Y-82148315D01*
X142292059Y-82144386D01*
X142298073Y-82123276D01*
X142317782Y-82054087D01*
X142371754Y-81864616D01*
X142374286Y-81846829D01*
X142412137Y-81580870D01*
X142412742Y-81576619D01*
X142414265Y-81285723D01*
X142376295Y-80997313D01*
X142299535Y-80716724D01*
X142185404Y-80449148D01*
X142036015Y-80199538D01*
X142021337Y-80181216D01*
X141856823Y-79975869D01*
X141854133Y-79972511D01*
X141643122Y-79772269D01*
X141406887Y-79602517D01*
X141149800Y-79466397D01*
X141145777Y-79464925D01*
X141145773Y-79464923D01*
X140880649Y-79367901D01*
X140880647Y-79367900D01*
X140876618Y-79366426D01*
X140592396Y-79304456D01*
X140548598Y-79301009D01*
X140366703Y-79286693D01*
X140366696Y-79286693D01*
X140364247Y-79286500D01*
X140206879Y-79286500D01*
X140204743Y-79286646D01*
X140204732Y-79286646D01*
X139994051Y-79301009D01*
X139994045Y-79301010D01*
X139989774Y-79301301D01*
X139985579Y-79302170D01*
X139985577Y-79302170D01*
X139970130Y-79305369D01*
X139704919Y-79360291D01*
X139430705Y-79457395D01*
X139172207Y-79590816D01*
X139168706Y-79593277D01*
X139168702Y-79593279D01*
X139155558Y-79602517D01*
X138934208Y-79758085D01*
X138721112Y-79956106D01*
X138718398Y-79959422D01*
X138718395Y-79959425D01*
X138704936Y-79975869D01*
X138536861Y-80181216D01*
X138384867Y-80429248D01*
X138383148Y-80433165D01*
X138383146Y-80433168D01*
X138374397Y-80453100D01*
X138267941Y-80695614D01*
X138266765Y-80699742D01*
X138266764Y-80699745D01*
X138242218Y-80785913D01*
X138188246Y-80975384D01*
X138187642Y-80979626D01*
X138187641Y-80979632D01*
X138185125Y-80997313D01*
X138147258Y-81263381D01*
X138145735Y-81554277D01*
X132252859Y-81554277D01*
X132254265Y-81285723D01*
X132216295Y-80997313D01*
X132139535Y-80716724D01*
X132025404Y-80449148D01*
X131876015Y-80199538D01*
X131861337Y-80181216D01*
X131696823Y-79975869D01*
X131694133Y-79972511D01*
X131483122Y-79772269D01*
X131246887Y-79602517D01*
X130989800Y-79466397D01*
X130985777Y-79464925D01*
X130985773Y-79464923D01*
X130720649Y-79367901D01*
X130720647Y-79367900D01*
X130716618Y-79366426D01*
X130432396Y-79304456D01*
X130388598Y-79301009D01*
X130206703Y-79286693D01*
X130206696Y-79286693D01*
X130204247Y-79286500D01*
X130046879Y-79286500D01*
X130044743Y-79286646D01*
X130044732Y-79286646D01*
X129834051Y-79301009D01*
X129834045Y-79301010D01*
X129829774Y-79301301D01*
X129825579Y-79302170D01*
X129825577Y-79302170D01*
X129810130Y-79305369D01*
X129544919Y-79360291D01*
X129270705Y-79457395D01*
X129012207Y-79590816D01*
X129008706Y-79593277D01*
X129008702Y-79593279D01*
X128995558Y-79602517D01*
X128774208Y-79758085D01*
X128561112Y-79956106D01*
X128558398Y-79959422D01*
X128558395Y-79959425D01*
X128544936Y-79975869D01*
X128376861Y-80181216D01*
X128224867Y-80429248D01*
X128223148Y-80433165D01*
X128223146Y-80433168D01*
X128214397Y-80453100D01*
X128107941Y-80695614D01*
X128106765Y-80699742D01*
X128106764Y-80699745D01*
X128082218Y-80785913D01*
X128028246Y-80975384D01*
X128027642Y-80979626D01*
X128027641Y-80979632D01*
X128025125Y-80997313D01*
X127987258Y-81263381D01*
X127985735Y-81554277D01*
X126843541Y-81554277D01*
X126828646Y-72751114D01*
X126825174Y-70699349D01*
X126845061Y-70631195D01*
X126898638Y-70584611D01*
X126968895Y-70574388D01*
X127026430Y-70599038D01*
X127026697Y-70599305D01*
X127032927Y-70603145D01*
X127032928Y-70603146D01*
X127170090Y-70687694D01*
X127177262Y-70692115D01*
X127199072Y-70699349D01*
X127338611Y-70745632D01*
X127338613Y-70745632D01*
X127345139Y-70747797D01*
X127351975Y-70748497D01*
X127351978Y-70748498D01*
X127395031Y-70752909D01*
X127449600Y-70758500D01*
X128250400Y-70758500D01*
X128253646Y-70758163D01*
X128253650Y-70758163D01*
X128349308Y-70748238D01*
X128349312Y-70748237D01*
X128356166Y-70747526D01*
X128362702Y-70745345D01*
X128362704Y-70745345D01*
X128500570Y-70699349D01*
X128523946Y-70691550D01*
X128674348Y-70598478D01*
X128760784Y-70511891D01*
X128823066Y-70477812D01*
X128893886Y-70482815D01*
X128938975Y-70511736D01*
X129002329Y-70574979D01*
X129026697Y-70599305D01*
X129032927Y-70603145D01*
X129032928Y-70603146D01*
X129170090Y-70687694D01*
X129177262Y-70692115D01*
X129199072Y-70699349D01*
X129338611Y-70745632D01*
X129338613Y-70745632D01*
X129345139Y-70747797D01*
X129351975Y-70748497D01*
X129351978Y-70748498D01*
X129395031Y-70752909D01*
X129449600Y-70758500D01*
X130250400Y-70758500D01*
X130253646Y-70758163D01*
X130253650Y-70758163D01*
X130349308Y-70748238D01*
X130349312Y-70748237D01*
X130356166Y-70747526D01*
X130362702Y-70745345D01*
X130362704Y-70745345D01*
X130500570Y-70699349D01*
X130523946Y-70691550D01*
X130674348Y-70598478D01*
X130799305Y-70473303D01*
X130871882Y-70355562D01*
X130888275Y-70328968D01*
X130888276Y-70328966D01*
X130892115Y-70322738D01*
X130923375Y-70228491D01*
X130945632Y-70161389D01*
X130945632Y-70161387D01*
X130947797Y-70154861D01*
X130958500Y-70050400D01*
X130958500Y-69049600D01*
X130947526Y-68943834D01*
X130943142Y-68930692D01*
X130893868Y-68783002D01*
X130891550Y-68776054D01*
X130798478Y-68625652D01*
X130673303Y-68500695D01*
X130650606Y-68486704D01*
X130617895Y-68466541D01*
X130570402Y-68413769D01*
X130558011Y-68359281D01*
X130558011Y-67957725D01*
X130578013Y-67889604D01*
X130631669Y-67843111D01*
X130701943Y-67833007D01*
X130728961Y-67840015D01*
X130909692Y-67909030D01*
X130914760Y-67910061D01*
X130914763Y-67910062D01*
X130990875Y-67925547D01*
X131128597Y-67953567D01*
X131133772Y-67953757D01*
X131133774Y-67953757D01*
X131346673Y-67961564D01*
X131346677Y-67961564D01*
X131351837Y-67961753D01*
X131491908Y-67943809D01*
X131562017Y-67954993D01*
X131597012Y-67979693D01*
X132445449Y-68828130D01*
X132479475Y-68890442D01*
X132481698Y-68930068D01*
X132471500Y-69029600D01*
X132471500Y-69513629D01*
X132451498Y-69581750D01*
X132434595Y-69602724D01*
X131541089Y-70496230D01*
X131526677Y-70508616D01*
X131515082Y-70517149D01*
X131515077Y-70517154D01*
X131509182Y-70521492D01*
X131504443Y-70527070D01*
X131504440Y-70527073D01*
X131474965Y-70561768D01*
X131468035Y-70569284D01*
X131462340Y-70574979D01*
X131457482Y-70581120D01*
X131444719Y-70597251D01*
X131441928Y-70600655D01*
X131399409Y-70650703D01*
X131394667Y-70656285D01*
X131391339Y-70662801D01*
X131387972Y-70667850D01*
X131384805Y-70672979D01*
X131380266Y-70678716D01*
X131349345Y-70744875D01*
X131347442Y-70748769D01*
X131314231Y-70813808D01*
X131312492Y-70820916D01*
X131310393Y-70826559D01*
X131308476Y-70832322D01*
X131305378Y-70838950D01*
X131303888Y-70846112D01*
X131303888Y-70846113D01*
X131290514Y-70910412D01*
X131289544Y-70914696D01*
X131272192Y-70985610D01*
X131271500Y-70996764D01*
X131271464Y-70996762D01*
X131271225Y-71000755D01*
X131270851Y-71004947D01*
X131269360Y-71012115D01*
X131269558Y-71019432D01*
X131271454Y-71089521D01*
X131271500Y-71092928D01*
X131271500Y-71143129D01*
X131251498Y-71211250D01*
X131197842Y-71257743D01*
X131174646Y-71265712D01*
X131167541Y-71267402D01*
X131159684Y-71268255D01*
X131023295Y-71319385D01*
X130906739Y-71406739D01*
X130819385Y-71523295D01*
X130768255Y-71659684D01*
X130761500Y-71721866D01*
X130761500Y-73338134D01*
X130768255Y-73400316D01*
X130819385Y-73536705D01*
X130906739Y-73653261D01*
X131023295Y-73740615D01*
X131159684Y-73791745D01*
X131167540Y-73792598D01*
X131175222Y-73794425D01*
X131174806Y-73796173D01*
X131231294Y-73819644D01*
X131271720Y-73878007D01*
X131277708Y-73907448D01*
X131281140Y-73949637D01*
X131283396Y-73956601D01*
X131284587Y-73962560D01*
X131285971Y-73968415D01*
X131286818Y-73975681D01*
X131311735Y-74044327D01*
X131313152Y-74048455D01*
X131335649Y-74117899D01*
X131339445Y-74124154D01*
X131341951Y-74129628D01*
X131344670Y-74135058D01*
X131347167Y-74141937D01*
X131351180Y-74148057D01*
X131351180Y-74148058D01*
X131387186Y-74202976D01*
X131389523Y-74206680D01*
X131427405Y-74269107D01*
X131431121Y-74273315D01*
X131431122Y-74273316D01*
X131434803Y-74277484D01*
X131434776Y-74277508D01*
X131437429Y-74280500D01*
X131440132Y-74283733D01*
X131444144Y-74289852D01*
X131449456Y-74294884D01*
X131500383Y-74343128D01*
X131502825Y-74345506D01*
X132001251Y-74843932D01*
X132035277Y-74906244D01*
X132037677Y-74944008D01*
X132030000Y-75031767D01*
X132026655Y-75070000D01*
X132046000Y-75291114D01*
X132047424Y-75296427D01*
X132047424Y-75296429D01*
X132086436Y-75442022D01*
X132103447Y-75505510D01*
X132105769Y-75510490D01*
X132105770Y-75510492D01*
X132194925Y-75701685D01*
X132194928Y-75701690D01*
X132197251Y-75706672D01*
X132200407Y-75711179D01*
X132200408Y-75711181D01*
X132232041Y-75756357D01*
X132324561Y-75888490D01*
X132481510Y-76045439D01*
X132486018Y-76048596D01*
X132486021Y-76048598D01*
X132561687Y-76101580D01*
X132663327Y-76172749D01*
X132668309Y-76175072D01*
X132668314Y-76175075D01*
X132858498Y-76263759D01*
X132864490Y-76266553D01*
X132869798Y-76267975D01*
X132869800Y-76267976D01*
X133073571Y-76322576D01*
X133073573Y-76322576D01*
X133078886Y-76324000D01*
X133300000Y-76343345D01*
X133521114Y-76324000D01*
X133526427Y-76322576D01*
X133526429Y-76322576D01*
X133730200Y-76267976D01*
X133730202Y-76267975D01*
X133735510Y-76266553D01*
X133741502Y-76263759D01*
X133931686Y-76175075D01*
X133931691Y-76175072D01*
X133936673Y-76172749D01*
X134038313Y-76101580D01*
X134113979Y-76048598D01*
X134113982Y-76048596D01*
X134118490Y-76045439D01*
X134275439Y-75888490D01*
X134367960Y-75756357D01*
X134399592Y-75711181D01*
X134399593Y-75711179D01*
X134402749Y-75706672D01*
X134405072Y-75701690D01*
X134405075Y-75701685D01*
X134455805Y-75592894D01*
X134502723Y-75539609D01*
X134571000Y-75520148D01*
X134638960Y-75540690D01*
X134684195Y-75592894D01*
X134734925Y-75701685D01*
X134734928Y-75701690D01*
X134737251Y-75706672D01*
X134740407Y-75711179D01*
X134740408Y-75711181D01*
X134772041Y-75756357D01*
X134864561Y-75888490D01*
X135021510Y-76045439D01*
X135026018Y-76048596D01*
X135026021Y-76048598D01*
X135101687Y-76101580D01*
X135203327Y-76172749D01*
X135208309Y-76175072D01*
X135208314Y-76175075D01*
X135398498Y-76263759D01*
X135404490Y-76266553D01*
X135409798Y-76267975D01*
X135409800Y-76267976D01*
X135613571Y-76322576D01*
X135613573Y-76322576D01*
X135618886Y-76324000D01*
X135840000Y-76343345D01*
X136061114Y-76324000D01*
X136066427Y-76322576D01*
X136066429Y-76322576D01*
X136270200Y-76267976D01*
X136270202Y-76267975D01*
X136275510Y-76266553D01*
X136281502Y-76263759D01*
X136471686Y-76175075D01*
X136471691Y-76175072D01*
X136476673Y-76172749D01*
X136541521Y-76127342D01*
X137687213Y-76127342D01*
X137696509Y-76139357D01*
X137739069Y-76169158D01*
X137748565Y-76174641D01*
X137939680Y-76263759D01*
X137949972Y-76267505D01*
X138153660Y-76322083D01*
X138164453Y-76323986D01*
X138374525Y-76342365D01*
X138385475Y-76342365D01*
X138595547Y-76323986D01*
X138606340Y-76322083D01*
X138810028Y-76267505D01*
X138820320Y-76263759D01*
X139011435Y-76174641D01*
X139020931Y-76169158D01*
X139064329Y-76138770D01*
X139072704Y-76128293D01*
X139065635Y-76114845D01*
X138392812Y-75442022D01*
X138378868Y-75434408D01*
X138377035Y-75434539D01*
X138370420Y-75438790D01*
X137693643Y-76115567D01*
X137687213Y-76127342D01*
X136541521Y-76127342D01*
X136578313Y-76101580D01*
X136653979Y-76048598D01*
X136653982Y-76048596D01*
X136658490Y-76045439D01*
X136815439Y-75888490D01*
X136907960Y-75756357D01*
X136939592Y-75711181D01*
X136939593Y-75711179D01*
X136942749Y-75706672D01*
X136945072Y-75701690D01*
X136945075Y-75701685D01*
X136970984Y-75646122D01*
X136996081Y-75592302D01*
X137042997Y-75539018D01*
X137111274Y-75519557D01*
X137179234Y-75540099D01*
X137224470Y-75592303D01*
X137275359Y-75701435D01*
X137280842Y-75710931D01*
X137311230Y-75754329D01*
X137321707Y-75762704D01*
X137335155Y-75755635D01*
X138007978Y-75082812D01*
X138014356Y-75071132D01*
X138744408Y-75071132D01*
X138744539Y-75072965D01*
X138748790Y-75079580D01*
X139425567Y-75756357D01*
X139437342Y-75762787D01*
X139449357Y-75753491D01*
X139479158Y-75710931D01*
X139484641Y-75701435D01*
X139573759Y-75510320D01*
X139577505Y-75500028D01*
X139632083Y-75296340D01*
X139633986Y-75285547D01*
X139652365Y-75075475D01*
X139652365Y-75064525D01*
X139633986Y-74854453D01*
X139632083Y-74843660D01*
X139577505Y-74639972D01*
X139573759Y-74629680D01*
X139484641Y-74438565D01*
X139479158Y-74429069D01*
X139448770Y-74385671D01*
X139438293Y-74377296D01*
X139424845Y-74384365D01*
X138752022Y-75057188D01*
X138744408Y-75071132D01*
X138014356Y-75071132D01*
X138015592Y-75068868D01*
X138015461Y-75067035D01*
X138011210Y-75060420D01*
X137334433Y-74383643D01*
X137322658Y-74377213D01*
X137310643Y-74386509D01*
X137280842Y-74429069D01*
X137275359Y-74438565D01*
X137224470Y-74547697D01*
X137177552Y-74600982D01*
X137109275Y-74620443D01*
X137041315Y-74599901D01*
X136996080Y-74547697D01*
X136995805Y-74547106D01*
X136970984Y-74493878D01*
X136945075Y-74438315D01*
X136945072Y-74438310D01*
X136942749Y-74433328D01*
X136909966Y-74386509D01*
X136818598Y-74256021D01*
X136818596Y-74256018D01*
X136815439Y-74251510D01*
X136658490Y-74094561D01*
X136653982Y-74091404D01*
X136653979Y-74091402D01*
X136558337Y-74024433D01*
X136540162Y-74011707D01*
X137687296Y-74011707D01*
X137694365Y-74025155D01*
X138367188Y-74697978D01*
X138381132Y-74705592D01*
X138382965Y-74705461D01*
X138389580Y-74701210D01*
X139066357Y-74024433D01*
X139072787Y-74012658D01*
X139063491Y-74000643D01*
X139020931Y-73970842D01*
X139011435Y-73965359D01*
X138820320Y-73876241D01*
X138810028Y-73872495D01*
X138606340Y-73817917D01*
X138595547Y-73816014D01*
X138385475Y-73797635D01*
X138374525Y-73797635D01*
X138164453Y-73816014D01*
X138153660Y-73817917D01*
X137949972Y-73872495D01*
X137939680Y-73876241D01*
X137748565Y-73965359D01*
X137739069Y-73970842D01*
X137695671Y-74001230D01*
X137687296Y-74011707D01*
X136540162Y-74011707D01*
X136476673Y-73967251D01*
X136471691Y-73964928D01*
X136471686Y-73964925D01*
X136280492Y-73875770D01*
X136280491Y-73875769D01*
X136275510Y-73873447D01*
X136270202Y-73872025D01*
X136270200Y-73872024D01*
X136066429Y-73817424D01*
X136066427Y-73817424D01*
X136061114Y-73816000D01*
X135840000Y-73796655D01*
X135618886Y-73816000D01*
X135613573Y-73817424D01*
X135613571Y-73817424D01*
X135409800Y-73872024D01*
X135409798Y-73872025D01*
X135404490Y-73873447D01*
X135399510Y-73875769D01*
X135399508Y-73875770D01*
X135208315Y-73964925D01*
X135208310Y-73964928D01*
X135203328Y-73967251D01*
X135198821Y-73970407D01*
X135198819Y-73970408D01*
X135026021Y-74091402D01*
X135026018Y-74091404D01*
X135021510Y-74094561D01*
X134864561Y-74251510D01*
X134861404Y-74256018D01*
X134861402Y-74256021D01*
X134770034Y-74386509D01*
X134737251Y-74433328D01*
X134734928Y-74438310D01*
X134734925Y-74438315D01*
X134684195Y-74547106D01*
X134637277Y-74600391D01*
X134569000Y-74619852D01*
X134501040Y-74599310D01*
X134455805Y-74547106D01*
X134405075Y-74438315D01*
X134405072Y-74438310D01*
X134402749Y-74433328D01*
X134369966Y-74386509D01*
X134278598Y-74256021D01*
X134278596Y-74256018D01*
X134275439Y-74251510D01*
X134118490Y-74094561D01*
X134113982Y-74091404D01*
X134113979Y-74091402D01*
X134018337Y-74024433D01*
X133936673Y-73967251D01*
X133931691Y-73964928D01*
X133931686Y-73964925D01*
X133740492Y-73875770D01*
X133740491Y-73875769D01*
X133735510Y-73873447D01*
X133730202Y-73872025D01*
X133730200Y-73872024D01*
X133526429Y-73817424D01*
X133526427Y-73817424D01*
X133521114Y-73816000D01*
X133300000Y-73796655D01*
X133296682Y-73796945D01*
X133229204Y-73777132D01*
X133182711Y-73723476D01*
X133172607Y-73653202D01*
X133196499Y-73595569D01*
X133202665Y-73587342D01*
X133877213Y-73587342D01*
X133886509Y-73599357D01*
X133929069Y-73629158D01*
X133938565Y-73634641D01*
X134129680Y-73723759D01*
X134139972Y-73727505D01*
X134343660Y-73782083D01*
X134354453Y-73783986D01*
X134564525Y-73802365D01*
X134575475Y-73802365D01*
X134785547Y-73783986D01*
X134796340Y-73782083D01*
X135000028Y-73727505D01*
X135010320Y-73723759D01*
X135201435Y-73634641D01*
X135210931Y-73629158D01*
X135254329Y-73598770D01*
X135262704Y-73588293D01*
X135255635Y-73574845D01*
X134582812Y-72902022D01*
X134568868Y-72894408D01*
X134567035Y-72894539D01*
X134560420Y-72898790D01*
X133883643Y-73575567D01*
X133877213Y-73587342D01*
X133202665Y-73587342D01*
X133235229Y-73543892D01*
X133235230Y-73543890D01*
X133240615Y-73536705D01*
X133291745Y-73400316D01*
X133298500Y-73338134D01*
X133298500Y-73314303D01*
X133318502Y-73246182D01*
X133372158Y-73199689D01*
X133442432Y-73189585D01*
X133503170Y-73215881D01*
X133511706Y-73222704D01*
X133525155Y-73215635D01*
X134197978Y-72542812D01*
X134205592Y-72528868D01*
X134205461Y-72527035D01*
X134201210Y-72520420D01*
X133524433Y-71843643D01*
X133512658Y-71837213D01*
X133501600Y-71845768D01*
X133435482Y-71871631D01*
X133365877Y-71857643D01*
X133314885Y-71808244D01*
X133298500Y-71746111D01*
X133298500Y-71721866D01*
X133291745Y-71659684D01*
X133240615Y-71523295D01*
X133201952Y-71471707D01*
X133877296Y-71471707D01*
X133884365Y-71485155D01*
X134557188Y-72157978D01*
X134571132Y-72165592D01*
X134572965Y-72165461D01*
X134579580Y-72161210D01*
X135256357Y-71484433D01*
X135262787Y-71472658D01*
X135253491Y-71460643D01*
X135210931Y-71430842D01*
X135201435Y-71425359D01*
X135010320Y-71336241D01*
X135000028Y-71332495D01*
X134796340Y-71277917D01*
X134785547Y-71276014D01*
X134575475Y-71257635D01*
X134564525Y-71257635D01*
X134354453Y-71276014D01*
X134343660Y-71277917D01*
X134139972Y-71332495D01*
X134129680Y-71336241D01*
X133938565Y-71425359D01*
X133929069Y-71430842D01*
X133885671Y-71461230D01*
X133877296Y-71471707D01*
X133201952Y-71471707D01*
X133153261Y-71406739D01*
X133053877Y-71332254D01*
X133011362Y-71275396D01*
X133006336Y-71204577D01*
X133040347Y-71142334D01*
X133407276Y-70775405D01*
X133469588Y-70741379D01*
X133496371Y-70738500D01*
X133980400Y-70738500D01*
X133983646Y-70738163D01*
X133983650Y-70738163D01*
X134079308Y-70728238D01*
X134079312Y-70728237D01*
X134086166Y-70727526D01*
X134092702Y-70725345D01*
X134092704Y-70725345D01*
X134232467Y-70678716D01*
X134253946Y-70671550D01*
X134404348Y-70578478D01*
X134490784Y-70491891D01*
X134553066Y-70457812D01*
X134623886Y-70462815D01*
X134668975Y-70491736D01*
X134698783Y-70521492D01*
X134756697Y-70579305D01*
X134762927Y-70583145D01*
X134762928Y-70583146D01*
X134900929Y-70668211D01*
X134907262Y-70672115D01*
X134972846Y-70693868D01*
X135068611Y-70725632D01*
X135068613Y-70725632D01*
X135075139Y-70727797D01*
X135081975Y-70728497D01*
X135081978Y-70728498D01*
X135125031Y-70732909D01*
X135179600Y-70738500D01*
X135840405Y-70738500D01*
X135908526Y-70758502D01*
X135929500Y-70775405D01*
X136430680Y-71276585D01*
X136464706Y-71338897D01*
X136459641Y-71409712D01*
X136413856Y-71468893D01*
X136296021Y-71551402D01*
X136296018Y-71551404D01*
X136291510Y-71554561D01*
X136134561Y-71711510D01*
X136131404Y-71716018D01*
X136131402Y-71716021D01*
X136040553Y-71845768D01*
X136007251Y-71893328D01*
X136004928Y-71898310D01*
X136004925Y-71898315D01*
X135953920Y-72007697D01*
X135907003Y-72060982D01*
X135838726Y-72080443D01*
X135770766Y-72059901D01*
X135725530Y-72007697D01*
X135674641Y-71898565D01*
X135669158Y-71889069D01*
X135638770Y-71845671D01*
X135628293Y-71837296D01*
X135614845Y-71844365D01*
X134942022Y-72517188D01*
X134934408Y-72531132D01*
X134934539Y-72532965D01*
X134938790Y-72539580D01*
X135615567Y-73216357D01*
X135627342Y-73222787D01*
X135639357Y-73213491D01*
X135669158Y-73170931D01*
X135674641Y-73161435D01*
X135725530Y-73052303D01*
X135772448Y-72999018D01*
X135840725Y-72979557D01*
X135908685Y-73000099D01*
X135953920Y-73052303D01*
X136004925Y-73161685D01*
X136004928Y-73161690D01*
X136007251Y-73166672D01*
X136010407Y-73171179D01*
X136010408Y-73171181D01*
X136127310Y-73338134D01*
X136134561Y-73348490D01*
X136291510Y-73505439D01*
X136296018Y-73508596D01*
X136296021Y-73508598D01*
X136336162Y-73536705D01*
X136473327Y-73632749D01*
X136478309Y-73635072D01*
X136478314Y-73635075D01*
X136667891Y-73723476D01*
X136674490Y-73726553D01*
X136679798Y-73727975D01*
X136679800Y-73727976D01*
X136883571Y-73782576D01*
X136883573Y-73782576D01*
X136888886Y-73784000D01*
X137110000Y-73803345D01*
X137331114Y-73784000D01*
X137336427Y-73782576D01*
X137336429Y-73782576D01*
X137540200Y-73727976D01*
X137540202Y-73727975D01*
X137545510Y-73726553D01*
X137552109Y-73723476D01*
X137741686Y-73635075D01*
X137741691Y-73635072D01*
X137746673Y-73632749D01*
X137883838Y-73536705D01*
X137923979Y-73508598D01*
X137923982Y-73508596D01*
X137928490Y-73505439D01*
X138085439Y-73348490D01*
X138092691Y-73338134D01*
X138209592Y-73171181D01*
X138209593Y-73171179D01*
X138212749Y-73166672D01*
X138215072Y-73161690D01*
X138215075Y-73161685D01*
X138304230Y-72970492D01*
X138304231Y-72970490D01*
X138306553Y-72965510D01*
X138323565Y-72902022D01*
X138362576Y-72756429D01*
X138362576Y-72756427D01*
X138364000Y-72751114D01*
X138383345Y-72530000D01*
X138364000Y-72308886D01*
X138325570Y-72165461D01*
X138307976Y-72099800D01*
X138307975Y-72099798D01*
X138306553Y-72094490D01*
X138290424Y-72059901D01*
X138215075Y-71898315D01*
X138215072Y-71898310D01*
X138212749Y-71893328D01*
X138179447Y-71845768D01*
X138088598Y-71716021D01*
X138088596Y-71716018D01*
X138085439Y-71711510D01*
X137928490Y-71554561D01*
X137923980Y-71551403D01*
X137923974Y-71551398D01*
X137806144Y-71468893D01*
X137761815Y-71413436D01*
X137754506Y-71342817D01*
X137789319Y-71276585D01*
X138845499Y-70220405D01*
X138907811Y-70186379D01*
X138934594Y-70183500D01*
X139550050Y-70183500D01*
X139618171Y-70203502D01*
X139631271Y-70214059D01*
X139631325Y-70213989D01*
X139637584Y-70218844D01*
X139643193Y-70224453D01*
X139650017Y-70228489D01*
X139650020Y-70228491D01*
X139757589Y-70292107D01*
X139786399Y-70309145D01*
X139794010Y-70311356D01*
X139794012Y-70311357D01*
X139833187Y-70322738D01*
X139946169Y-70355562D01*
X139952574Y-70356066D01*
X139952579Y-70356067D01*
X139981042Y-70358307D01*
X139981050Y-70358307D01*
X139983498Y-70358500D01*
X141291502Y-70358500D01*
X141293950Y-70358307D01*
X141293958Y-70358307D01*
X141322421Y-70356067D01*
X141322426Y-70356066D01*
X141328831Y-70355562D01*
X141441813Y-70322738D01*
X141480988Y-70311357D01*
X141480990Y-70311356D01*
X141488601Y-70309145D01*
X141517411Y-70292107D01*
X141624980Y-70228491D01*
X141624983Y-70228489D01*
X141631807Y-70224453D01*
X141749453Y-70106807D01*
X141753489Y-70099983D01*
X141753491Y-70099980D01*
X141830108Y-69970427D01*
X141834145Y-69963601D01*
X141880562Y-69803831D01*
X141883500Y-69766502D01*
X141883500Y-69359500D01*
X141903502Y-69291379D01*
X141957158Y-69244886D01*
X142009500Y-69233500D01*
X142281233Y-69233500D01*
X142292416Y-69234027D01*
X142299909Y-69235702D01*
X142307835Y-69235453D01*
X142307836Y-69235453D01*
X142367986Y-69233562D01*
X142371945Y-69233500D01*
X142399856Y-69233500D01*
X142403791Y-69233003D01*
X142403856Y-69232995D01*
X142415693Y-69232062D01*
X142447951Y-69231048D01*
X142451970Y-69230922D01*
X142459889Y-69230673D01*
X142479343Y-69225021D01*
X142498700Y-69221013D01*
X142510930Y-69219468D01*
X142510931Y-69219468D01*
X142518797Y-69218474D01*
X142526168Y-69215555D01*
X142526170Y-69215555D01*
X142559912Y-69202196D01*
X142571142Y-69198351D01*
X142605983Y-69188229D01*
X142605984Y-69188229D01*
X142613593Y-69186018D01*
X142620412Y-69181985D01*
X142620417Y-69181983D01*
X142631028Y-69175707D01*
X142648776Y-69167012D01*
X142667617Y-69159552D01*
X142703387Y-69133564D01*
X142713307Y-69127048D01*
X142744535Y-69108580D01*
X142744538Y-69108578D01*
X142751362Y-69104542D01*
X142765683Y-69090221D01*
X142780717Y-69077380D01*
X142790694Y-69070131D01*
X142797107Y-69065472D01*
X142825298Y-69031395D01*
X142833288Y-69022616D01*
X143126758Y-68729146D01*
X143135048Y-68721602D01*
X143141529Y-68717489D01*
X143188170Y-68667821D01*
X143190924Y-68664980D01*
X143210646Y-68645258D01*
X143213123Y-68642065D01*
X143220828Y-68633044D01*
X143245670Y-68606589D01*
X143251097Y-68600810D01*
X143257994Y-68588264D01*
X143260857Y-68583057D01*
X143271713Y-68566530D01*
X143279268Y-68556791D01*
X143279269Y-68556789D01*
X143284125Y-68550529D01*
X143301685Y-68509949D01*
X143306902Y-68499301D01*
X143324386Y-68467498D01*
X143324387Y-68467496D01*
X143328206Y-68460549D01*
X143333244Y-68440926D01*
X143339648Y-68422223D01*
X143344544Y-68410909D01*
X143344544Y-68410908D01*
X143347692Y-68403634D01*
X143348931Y-68395811D01*
X143348934Y-68395801D01*
X143354610Y-68359965D01*
X143357016Y-68348345D01*
X143366039Y-68313200D01*
X143366039Y-68313199D01*
X143368011Y-68305519D01*
X143368011Y-68285265D01*
X143369562Y-68265554D01*
X143371491Y-68253375D01*
X143372731Y-68245546D01*
X143368570Y-68201527D01*
X143368011Y-68189670D01*
X143368011Y-66653274D01*
X143368538Y-66642090D01*
X143370212Y-66634602D01*
X143368073Y-66566543D01*
X143368011Y-66562586D01*
X143368011Y-66534655D01*
X143367505Y-66530649D01*
X143366572Y-66518803D01*
X143365433Y-66482548D01*
X143365184Y-66474621D01*
X143359533Y-66455169D01*
X143355525Y-66435817D01*
X143353978Y-66423574D01*
X143352985Y-66415714D01*
X143339844Y-66382522D01*
X143336711Y-66374608D01*
X143332866Y-66363381D01*
X143332232Y-66361198D01*
X143320529Y-66320918D01*
X143316495Y-66314096D01*
X143316492Y-66314090D01*
X143310217Y-66303479D01*
X143301521Y-66285729D01*
X143296983Y-66274267D01*
X143296980Y-66274262D01*
X143294063Y-66266894D01*
X143268084Y-66231136D01*
X143261568Y-66221218D01*
X143243086Y-66189968D01*
X143239053Y-66183148D01*
X143224729Y-66168824D01*
X143211887Y-66153789D01*
X143199983Y-66137404D01*
X143165917Y-66109222D01*
X143157138Y-66101233D01*
X141232801Y-64176896D01*
X141198775Y-64114584D01*
X141195949Y-64084146D01*
X141196000Y-64082388D01*
X141196000Y-64068517D01*
X141704000Y-64068517D01*
X141708064Y-64082359D01*
X141721478Y-64084393D01*
X141728184Y-64083534D01*
X141738262Y-64081392D01*
X141942255Y-64020191D01*
X141951842Y-64016433D01*
X142143095Y-63922739D01*
X142151945Y-63917464D01*
X142325328Y-63793792D01*
X142333200Y-63787139D01*
X142484052Y-63636812D01*
X142490730Y-63628965D01*
X142615003Y-63456020D01*
X142620313Y-63447183D01*
X142714670Y-63256267D01*
X142718469Y-63246672D01*
X142780377Y-63042910D01*
X142782555Y-63032837D01*
X142783986Y-63021962D01*
X142781775Y-63007778D01*
X142768617Y-63004000D01*
X141722115Y-63004000D01*
X141706876Y-63008475D01*
X141705671Y-63009865D01*
X141704000Y-63017548D01*
X141704000Y-64068517D01*
X141196000Y-64068517D01*
X141196000Y-62477885D01*
X141704000Y-62477885D01*
X141708475Y-62493124D01*
X141709865Y-62494329D01*
X141717548Y-62496000D01*
X142768344Y-62496000D01*
X142781875Y-62492027D01*
X142783180Y-62482947D01*
X142741214Y-62315875D01*
X142737894Y-62306124D01*
X142652972Y-62110814D01*
X142648105Y-62101739D01*
X142532426Y-61922926D01*
X142526136Y-61914757D01*
X142382806Y-61757240D01*
X142375273Y-61750215D01*
X142208139Y-61618222D01*
X142199552Y-61612517D01*
X142013117Y-61509599D01*
X142003705Y-61505369D01*
X141802959Y-61434280D01*
X141792988Y-61431646D01*
X141721837Y-61418972D01*
X141708540Y-61420432D01*
X141704000Y-61434989D01*
X141704000Y-62477885D01*
X141196000Y-62477885D01*
X141196000Y-61433102D01*
X141192082Y-61419758D01*
X141177806Y-61417771D01*
X141139324Y-61423660D01*
X141129288Y-61426051D01*
X140926868Y-61492212D01*
X140917359Y-61496209D01*
X140728463Y-61594542D01*
X140719738Y-61600036D01*
X140549433Y-61727905D01*
X140541726Y-61734748D01*
X140394590Y-61888717D01*
X140388109Y-61896722D01*
X140283498Y-62050074D01*
X140228587Y-62095076D01*
X140158062Y-62103247D01*
X140094315Y-62071993D01*
X140073618Y-62047509D01*
X139992822Y-61922617D01*
X139992818Y-61922612D01*
X139990014Y-61918277D01*
X139839670Y-61753051D01*
X139835619Y-61749852D01*
X139835615Y-61749848D01*
X139668414Y-61617800D01*
X139668410Y-61617798D01*
X139664359Y-61614598D01*
X139628028Y-61594542D01*
X139612136Y-61585769D01*
X139468789Y-61506638D01*
X139463920Y-61504914D01*
X139463916Y-61504912D01*
X139263087Y-61433795D01*
X139263083Y-61433794D01*
X139258212Y-61432069D01*
X139253119Y-61431162D01*
X139253116Y-61431161D01*
X139043373Y-61393800D01*
X139043367Y-61393799D01*
X139038284Y-61392894D01*
X138964452Y-61391992D01*
X138820081Y-61390228D01*
X138820079Y-61390228D01*
X138814911Y-61390165D01*
X138594091Y-61423955D01*
X138381756Y-61493357D01*
X138183607Y-61596507D01*
X138179474Y-61599610D01*
X138179471Y-61599612D01*
X138155247Y-61617800D01*
X138004965Y-61730635D01*
X137850629Y-61892138D01*
X137743201Y-62049621D01*
X137688293Y-62094621D01*
X137617768Y-62102792D01*
X137554021Y-62071538D01*
X137533324Y-62047054D01*
X137452822Y-61922617D01*
X137452818Y-61922612D01*
X137450014Y-61918277D01*
X137299670Y-61753051D01*
X137295619Y-61749852D01*
X137295615Y-61749848D01*
X137128414Y-61617800D01*
X137128410Y-61617798D01*
X137124359Y-61614598D01*
X137088028Y-61594542D01*
X137072136Y-61585769D01*
X136928789Y-61506638D01*
X136923920Y-61504914D01*
X136923916Y-61504912D01*
X136723087Y-61433795D01*
X136723083Y-61433794D01*
X136718212Y-61432069D01*
X136713119Y-61431162D01*
X136713116Y-61431161D01*
X136503373Y-61393800D01*
X136503367Y-61393799D01*
X136498284Y-61392894D01*
X136424452Y-61391992D01*
X136280081Y-61390228D01*
X136280079Y-61390228D01*
X136274911Y-61390165D01*
X136054091Y-61423955D01*
X135841756Y-61493357D01*
X135643607Y-61596507D01*
X135639474Y-61599610D01*
X135639471Y-61599612D01*
X135615247Y-61617800D01*
X135464965Y-61730635D01*
X135310629Y-61892138D01*
X135203201Y-62049621D01*
X135148293Y-62094621D01*
X135077768Y-62102792D01*
X135014021Y-62071538D01*
X134993324Y-62047054D01*
X134912822Y-61922617D01*
X134912818Y-61922612D01*
X134910014Y-61918277D01*
X134759670Y-61753051D01*
X134755619Y-61749852D01*
X134755615Y-61749848D01*
X134588414Y-61617800D01*
X134588410Y-61617798D01*
X134584359Y-61614598D01*
X134548028Y-61594542D01*
X134532136Y-61585769D01*
X134388789Y-61506638D01*
X134383920Y-61504914D01*
X134383916Y-61504912D01*
X134183087Y-61433795D01*
X134183083Y-61433794D01*
X134178212Y-61432069D01*
X134173119Y-61431162D01*
X134173116Y-61431161D01*
X133963373Y-61393800D01*
X133963367Y-61393799D01*
X133958284Y-61392894D01*
X133884452Y-61391992D01*
X133740081Y-61390228D01*
X133740079Y-61390228D01*
X133734911Y-61390165D01*
X133514091Y-61423955D01*
X133301756Y-61493357D01*
X133103607Y-61596507D01*
X133099474Y-61599610D01*
X133099471Y-61599612D01*
X133075247Y-61617800D01*
X132924965Y-61730635D01*
X132770629Y-61892138D01*
X132740363Y-61936507D01*
X132685455Y-61981507D01*
X132636277Y-61991500D01*
X132485939Y-61991500D01*
X132417818Y-61971498D01*
X132380147Y-61933941D01*
X132373022Y-61922926D01*
X132370014Y-61918277D01*
X132219670Y-61753051D01*
X132215619Y-61749852D01*
X132215615Y-61749848D01*
X132048414Y-61617800D01*
X132048410Y-61617798D01*
X132044359Y-61614598D01*
X132008028Y-61594542D01*
X131992136Y-61585769D01*
X131848789Y-61506638D01*
X131843920Y-61504914D01*
X131843916Y-61504912D01*
X131643087Y-61433795D01*
X131643083Y-61433794D01*
X131638212Y-61432069D01*
X131633119Y-61431162D01*
X131633116Y-61431161D01*
X131423373Y-61393800D01*
X131423367Y-61393799D01*
X131418284Y-61392894D01*
X131347770Y-61392033D01*
X131200082Y-61390228D01*
X131200080Y-61390228D01*
X131194911Y-61390165D01*
X131171156Y-61393800D01*
X131091385Y-61406006D01*
X131021023Y-61396538D01*
X130983232Y-61370551D01*
X130885776Y-61273095D01*
X130851750Y-61210783D01*
X130856815Y-61139968D01*
X130899362Y-61083132D01*
X130965882Y-61058321D01*
X130974871Y-61058000D01*
X143666000Y-61058000D01*
X143734121Y-61078002D01*
G37*
%TD.AperFunction*%
%TA.AperFunction,Conductor*%
G36*
X138748597Y-64103567D02*
G01*
X138753772Y-64103757D01*
X138753774Y-64103757D01*
X138966673Y-64111564D01*
X138966677Y-64111564D01*
X138971837Y-64111753D01*
X138976957Y-64111097D01*
X138976959Y-64111097D01*
X139188288Y-64084025D01*
X139188289Y-64084025D01*
X139193416Y-64083368D01*
X139198367Y-64081883D01*
X139198370Y-64081882D01*
X139239829Y-64069444D01*
X139310825Y-64069028D01*
X139365131Y-64101035D01*
X142064106Y-66800010D01*
X142098132Y-66862322D01*
X142101011Y-66889105D01*
X142101011Y-67271428D01*
X142081009Y-67339549D01*
X142027353Y-67386042D01*
X141957079Y-67396146D01*
X141892499Y-67366652D01*
X141854014Y-67306581D01*
X141835894Y-67244212D01*
X141829648Y-67229779D01*
X141753089Y-67100322D01*
X141743449Y-67087896D01*
X141637104Y-66981551D01*
X141624678Y-66971911D01*
X141495221Y-66895352D01*
X141480790Y-66889107D01*
X141334935Y-66846731D01*
X141322333Y-66844430D01*
X141293916Y-66842193D01*
X141288986Y-66842000D01*
X140909615Y-66842000D01*
X140894376Y-66846475D01*
X140893171Y-66847865D01*
X140891500Y-66855548D01*
X140891500Y-67778000D01*
X140871498Y-67846121D01*
X140817842Y-67892614D01*
X140765500Y-67904000D01*
X139754842Y-67904000D01*
X139690703Y-67886453D01*
X139620427Y-67844892D01*
X139620428Y-67844892D01*
X139613601Y-67840855D01*
X139605990Y-67838644D01*
X139605988Y-67838643D01*
X139553769Y-67823472D01*
X139453831Y-67794438D01*
X139447426Y-67793934D01*
X139447421Y-67793933D01*
X139418958Y-67791693D01*
X139418950Y-67791693D01*
X139416502Y-67791500D01*
X138108498Y-67791500D01*
X138106050Y-67791693D01*
X138106042Y-67791693D01*
X138077579Y-67793933D01*
X138077574Y-67793934D01*
X138071169Y-67794438D01*
X137971231Y-67823472D01*
X137919012Y-67838643D01*
X137919010Y-67838644D01*
X137911399Y-67840855D01*
X137904572Y-67844892D01*
X137904573Y-67844892D01*
X137775020Y-67921509D01*
X137775017Y-67921511D01*
X137768193Y-67925547D01*
X137650547Y-68043193D01*
X137646511Y-68050017D01*
X137646509Y-68050020D01*
X137626118Y-68084500D01*
X137565855Y-68186399D01*
X137563644Y-68194010D01*
X137563643Y-68194012D01*
X137557400Y-68215500D01*
X137519438Y-68346169D01*
X137518934Y-68352574D01*
X137518933Y-68352579D01*
X137516693Y-68381042D01*
X137516500Y-68383498D01*
X137516500Y-68816502D01*
X137519438Y-68853831D01*
X137565855Y-69013601D01*
X137573395Y-69026350D01*
X137646509Y-69149980D01*
X137646511Y-69149983D01*
X137650547Y-69156807D01*
X137768193Y-69274453D01*
X137775020Y-69278491D01*
X137781281Y-69283347D01*
X137780253Y-69284673D01*
X137822265Y-69329666D01*
X137834973Y-69399516D01*
X137807899Y-69465148D01*
X137798770Y-69475325D01*
X137199095Y-70075000D01*
X137136783Y-70109026D01*
X137065968Y-70103961D01*
X137020905Y-70075000D01*
X136725405Y-69779500D01*
X136691379Y-69717188D01*
X136688500Y-69690405D01*
X136688500Y-69029600D01*
X136688163Y-69026350D01*
X136678238Y-68930692D01*
X136678237Y-68930688D01*
X136677526Y-68923834D01*
X136642537Y-68818958D01*
X136623868Y-68763002D01*
X136621550Y-68756054D01*
X136528478Y-68605652D01*
X136403303Y-68480695D01*
X136380341Y-68466541D01*
X136258968Y-68391725D01*
X136258966Y-68391724D01*
X136252738Y-68387885D01*
X136146293Y-68352579D01*
X136091389Y-68334368D01*
X136091387Y-68334368D01*
X136084861Y-68332203D01*
X136078025Y-68331503D01*
X136078022Y-68331502D01*
X136034969Y-68327091D01*
X135980400Y-68321500D01*
X135179600Y-68321500D01*
X135176354Y-68321837D01*
X135176350Y-68321837D01*
X135080692Y-68331762D01*
X135080688Y-68331763D01*
X135073834Y-68332474D01*
X135067298Y-68334655D01*
X135067296Y-68334655D01*
X134961064Y-68370097D01*
X134906054Y-68388450D01*
X134755652Y-68481522D01*
X134750479Y-68486704D01*
X134669216Y-68568109D01*
X134606934Y-68602188D01*
X134536114Y-68597185D01*
X134491025Y-68568264D01*
X134408483Y-68485866D01*
X134403303Y-68480695D01*
X134380341Y-68466541D01*
X134258968Y-68391725D01*
X134258966Y-68391724D01*
X134252738Y-68387885D01*
X134128183Y-68346572D01*
X134078755Y-68316074D01*
X133141286Y-67378605D01*
X139400061Y-67378605D01*
X139400101Y-67392706D01*
X139407370Y-67396000D01*
X140365385Y-67396000D01*
X140380624Y-67391525D01*
X140381829Y-67390135D01*
X140383500Y-67382452D01*
X140383500Y-66860116D01*
X140379025Y-66844877D01*
X140377635Y-66843672D01*
X140369952Y-66842001D01*
X139986017Y-66842001D01*
X139981080Y-66842195D01*
X139952664Y-66844430D01*
X139940069Y-66846730D01*
X139794210Y-66889107D01*
X139779779Y-66895352D01*
X139650322Y-66971911D01*
X139637896Y-66981551D01*
X139531551Y-67087896D01*
X139521911Y-67100322D01*
X139445352Y-67229779D01*
X139439107Y-67244210D01*
X139400061Y-67378605D01*
X133141286Y-67378605D01*
X132669609Y-66906928D01*
X132635583Y-66844616D01*
X132633782Y-66801389D01*
X132651529Y-66666590D01*
X132653156Y-66600000D01*
X132634852Y-66377361D01*
X132580431Y-66160702D01*
X132491354Y-65955840D01*
X132370014Y-65768277D01*
X132219670Y-65603051D01*
X132215619Y-65599852D01*
X132215615Y-65599848D01*
X132048414Y-65467800D01*
X132048410Y-65467798D01*
X132044359Y-65464598D01*
X131848789Y-65356638D01*
X131843914Y-65354912D01*
X131839198Y-65352792D01*
X131839818Y-65351412D01*
X131787840Y-65313833D01*
X131761926Y-65247735D01*
X131775861Y-65178119D01*
X131798343Y-65147562D01*
X132350989Y-64594916D01*
X132413301Y-64560890D01*
X132440084Y-64558011D01*
X137656722Y-64558011D01*
X137667905Y-64558538D01*
X137675398Y-64560213D01*
X137683324Y-64559964D01*
X137683325Y-64559964D01*
X137743475Y-64558073D01*
X137747434Y-64558011D01*
X137775345Y-64558011D01*
X137779280Y-64557514D01*
X137779345Y-64557506D01*
X137791182Y-64556573D01*
X137823440Y-64555559D01*
X137827459Y-64555433D01*
X137835378Y-64555184D01*
X137854832Y-64549532D01*
X137874189Y-64545524D01*
X137886419Y-64543979D01*
X137886420Y-64543979D01*
X137894286Y-64542985D01*
X137901657Y-64540066D01*
X137901659Y-64540066D01*
X137935401Y-64526707D01*
X137946631Y-64522862D01*
X137981472Y-64512740D01*
X137981473Y-64512740D01*
X137989082Y-64510529D01*
X137995901Y-64506496D01*
X137995906Y-64506494D01*
X138006517Y-64500218D01*
X138024265Y-64491523D01*
X138043106Y-64484063D01*
X138078876Y-64458075D01*
X138088796Y-64451559D01*
X138120024Y-64433091D01*
X138120027Y-64433089D01*
X138126851Y-64429053D01*
X138141172Y-64414732D01*
X138156206Y-64401891D01*
X138166183Y-64394642D01*
X138172596Y-64389983D01*
X138200787Y-64355906D01*
X138208777Y-64347127D01*
X138454549Y-64101355D01*
X138516861Y-64067329D01*
X138568762Y-64066979D01*
X138748597Y-64103567D01*
G37*
%TD.AperFunction*%
%TD*%
M02*
