%TF.GenerationSoftware,KiCad,Pcbnew,6.0.2+dfsg-1*%
%TF.CreationDate,2022-09-01T21:53:15+02:00*%
%TF.ProjectId,p1-interface,70312d69-6e74-4657-9266-6163652e6b69,rev?*%
%TF.SameCoordinates,Original*%
%TF.FileFunction,Legend,Top*%
%TF.FilePolarity,Positive*%
%FSLAX46Y46*%
G04 Gerber Fmt 4.6, Leading zero omitted, Abs format (unit mm)*
G04 Created by KiCad (PCBNEW 6.0.2+dfsg-1) date 2022-09-01 21:53:15*
%MOMM*%
%LPD*%
G01*
G04 APERTURE LIST*
%ADD10C,0.150000*%
%ADD11C,0.200000*%
%ADD12C,0.120000*%
%ADD13C,0.100000*%
G04 APERTURE END LIST*
D10*
X143664285Y-72583333D02*
X142664285Y-72583333D01*
X143616666Y-72583333D02*
X143664285Y-72678571D01*
X143664285Y-72869047D01*
X143616666Y-72964285D01*
X143569047Y-73011904D01*
X143473809Y-73059523D01*
X143188095Y-73059523D01*
X143092857Y-73011904D01*
X143045238Y-72964285D01*
X142997619Y-72869047D01*
X142997619Y-72678571D01*
X143045238Y-72583333D01*
X142997619Y-74011904D02*
X142997619Y-73440476D01*
X142997619Y-73726190D02*
X143997619Y-73726190D01*
X143854761Y-73630952D01*
X143759523Y-73535714D01*
X143711904Y-73440476D01*
X143378571Y-74440476D02*
X143378571Y-75202380D01*
X142997619Y-75678571D02*
X143664285Y-75678571D01*
X143997619Y-75678571D02*
X143950000Y-75630952D01*
X143902380Y-75678571D01*
X143950000Y-75726190D01*
X143997619Y-75678571D01*
X143902380Y-75678571D01*
X143664285Y-76154761D02*
X142997619Y-76154761D01*
X143569047Y-76154761D02*
X143616666Y-76202380D01*
X143664285Y-76297619D01*
X143664285Y-76440476D01*
X143616666Y-76535714D01*
X143521428Y-76583333D01*
X142997619Y-76583333D01*
X143664285Y-76916666D02*
X143664285Y-77297619D01*
X143997619Y-77059523D02*
X143140476Y-77059523D01*
X143045238Y-77107142D01*
X142997619Y-77202380D01*
X142997619Y-77297619D01*
X143045238Y-78011904D02*
X142997619Y-77916666D01*
X142997619Y-77726190D01*
X143045238Y-77630952D01*
X143140476Y-77583333D01*
X143521428Y-77583333D01*
X143616666Y-77630952D01*
X143664285Y-77726190D01*
X143664285Y-77916666D01*
X143616666Y-78011904D01*
X143521428Y-78059523D01*
X143426190Y-78059523D01*
X143330952Y-77583333D01*
X142997619Y-78488095D02*
X143664285Y-78488095D01*
X143473809Y-78488095D02*
X143569047Y-78535714D01*
X143616666Y-78583333D01*
X143664285Y-78678571D01*
X143664285Y-78773809D01*
X143664285Y-78964285D02*
X143664285Y-79345238D01*
X142997619Y-79107142D02*
X143854761Y-79107142D01*
X143950000Y-79154761D01*
X143997619Y-79250000D01*
X143997619Y-79345238D01*
X142997619Y-80107142D02*
X143521428Y-80107142D01*
X143616666Y-80059523D01*
X143664285Y-79964285D01*
X143664285Y-79773809D01*
X143616666Y-79678571D01*
X143045238Y-80107142D02*
X142997619Y-80011904D01*
X142997619Y-79773809D01*
X143045238Y-79678571D01*
X143140476Y-79630952D01*
X143235714Y-79630952D01*
X143330952Y-79678571D01*
X143378571Y-79773809D01*
X143378571Y-80011904D01*
X143426190Y-80107142D01*
X143045238Y-81011904D02*
X142997619Y-80916666D01*
X142997619Y-80726190D01*
X143045238Y-80630952D01*
X143092857Y-80583333D01*
X143188095Y-80535714D01*
X143473809Y-80535714D01*
X143569047Y-80583333D01*
X143616666Y-80630952D01*
X143664285Y-80726190D01*
X143664285Y-80916666D01*
X143616666Y-81011904D01*
X143045238Y-81821428D02*
X142997619Y-81726190D01*
X142997619Y-81535714D01*
X143045238Y-81440476D01*
X143140476Y-81392857D01*
X143521428Y-81392857D01*
X143616666Y-81440476D01*
X143664285Y-81535714D01*
X143664285Y-81726190D01*
X143616666Y-81821428D01*
X143521428Y-81869047D01*
X143426190Y-81869047D01*
X143330952Y-81392857D01*
X143045238Y-82345238D02*
X142997619Y-82345238D01*
X142902380Y-82297619D01*
X142854761Y-82250000D01*
X142997619Y-83535714D02*
X143664285Y-83535714D01*
X143473809Y-83535714D02*
X143569047Y-83583333D01*
X143616666Y-83630952D01*
X143664285Y-83726190D01*
X143664285Y-83821428D01*
X143045238Y-84535714D02*
X142997619Y-84440476D01*
X142997619Y-84250000D01*
X143045238Y-84154761D01*
X143140476Y-84107142D01*
X143521428Y-84107142D01*
X143616666Y-84154761D01*
X143664285Y-84250000D01*
X143664285Y-84440476D01*
X143616666Y-84535714D01*
X143521428Y-84583333D01*
X143426190Y-84583333D01*
X143330952Y-84107142D01*
X143664285Y-84916666D02*
X142997619Y-85154761D01*
X143664285Y-85392857D01*
X143283333Y-86488095D02*
X143283333Y-86964285D01*
X142997619Y-86392857D02*
X143997619Y-86726190D01*
X142997619Y-87059523D01*
D11*
X127614285Y-70959523D02*
X126947619Y-71150000D01*
X127423809Y-71340476D01*
X126947619Y-71530952D01*
X127614285Y-71721428D01*
X127614285Y-72007142D02*
X126947619Y-72197619D01*
X127423809Y-72388095D01*
X126947619Y-72578571D01*
X127614285Y-72769047D01*
X127614285Y-73054761D02*
X126947619Y-73245238D01*
X127423809Y-73435714D01*
X126947619Y-73626190D01*
X127614285Y-73816666D01*
X127042857Y-74197619D02*
X126995238Y-74245238D01*
X126947619Y-74197619D01*
X126995238Y-74150000D01*
X127042857Y-74197619D01*
X126947619Y-74197619D01*
X127614285Y-75102380D02*
X126804761Y-75102380D01*
X126709523Y-75054761D01*
X126661904Y-75007142D01*
X126614285Y-74911904D01*
X126614285Y-74769047D01*
X126661904Y-74673809D01*
X126995238Y-75102380D02*
X126947619Y-75007142D01*
X126947619Y-74816666D01*
X126995238Y-74721428D01*
X127042857Y-74673809D01*
X127138095Y-74626190D01*
X127423809Y-74626190D01*
X127519047Y-74673809D01*
X127566666Y-74721428D01*
X127614285Y-74816666D01*
X127614285Y-75007142D01*
X127566666Y-75102380D01*
X126947619Y-75578571D02*
X127614285Y-75578571D01*
X127423809Y-75578571D02*
X127519047Y-75626190D01*
X127566666Y-75673809D01*
X127614285Y-75769047D01*
X127614285Y-75864285D01*
X126947619Y-76340476D02*
X126995238Y-76245238D01*
X127042857Y-76197619D01*
X127138095Y-76150000D01*
X127423809Y-76150000D01*
X127519047Y-76197619D01*
X127566666Y-76245238D01*
X127614285Y-76340476D01*
X127614285Y-76483333D01*
X127566666Y-76578571D01*
X127519047Y-76626190D01*
X127423809Y-76673809D01*
X127138095Y-76673809D01*
X127042857Y-76626190D01*
X126995238Y-76578571D01*
X126947619Y-76483333D01*
X126947619Y-76340476D01*
X126947619Y-77530952D02*
X127947619Y-77530952D01*
X126995238Y-77530952D02*
X126947619Y-77435714D01*
X126947619Y-77245238D01*
X126995238Y-77150000D01*
X127042857Y-77102380D01*
X127138095Y-77054761D01*
X127423809Y-77054761D01*
X127519047Y-77102380D01*
X127566666Y-77150000D01*
X127614285Y-77245238D01*
X127614285Y-77435714D01*
X127566666Y-77530952D01*
X126947619Y-78435714D02*
X127471428Y-78435714D01*
X127566666Y-78388095D01*
X127614285Y-78292857D01*
X127614285Y-78102380D01*
X127566666Y-78007142D01*
X126995238Y-78435714D02*
X126947619Y-78340476D01*
X126947619Y-78102380D01*
X126995238Y-78007142D01*
X127090476Y-77959523D01*
X127185714Y-77959523D01*
X127280952Y-78007142D01*
X127328571Y-78102380D01*
X127328571Y-78340476D01*
X127376190Y-78435714D01*
X127614285Y-78911904D02*
X126947619Y-78911904D01*
X127519047Y-78911904D02*
X127566666Y-78959523D01*
X127614285Y-79054761D01*
X127614285Y-79197619D01*
X127566666Y-79292857D01*
X127471428Y-79340476D01*
X126947619Y-79340476D01*
X126995238Y-79769047D02*
X126947619Y-79864285D01*
X126947619Y-80054761D01*
X126995238Y-80150000D01*
X127090476Y-80197619D01*
X127138095Y-80197619D01*
X127233333Y-80150000D01*
X127280952Y-80054761D01*
X127280952Y-79911904D01*
X127328571Y-79816666D01*
X127423809Y-79769047D01*
X127471428Y-79769047D01*
X127566666Y-79816666D01*
X127614285Y-79911904D01*
X127614285Y-80054761D01*
X127566666Y-80150000D01*
X127614285Y-80626190D02*
X126614285Y-80626190D01*
X127566666Y-80626190D02*
X127614285Y-80721428D01*
X127614285Y-80911904D01*
X127566666Y-81007142D01*
X127519047Y-81054761D01*
X127423809Y-81102380D01*
X127138095Y-81102380D01*
X127042857Y-81054761D01*
X126995238Y-81007142D01*
X126947619Y-80911904D01*
X126947619Y-80721428D01*
X126995238Y-80626190D01*
X126947619Y-81959523D02*
X127471428Y-81959523D01*
X127566666Y-81911904D01*
X127614285Y-81816666D01*
X127614285Y-81626190D01*
X127566666Y-81530952D01*
X126995238Y-81959523D02*
X126947619Y-81864285D01*
X126947619Y-81626190D01*
X126995238Y-81530952D01*
X127090476Y-81483333D01*
X127185714Y-81483333D01*
X127280952Y-81530952D01*
X127328571Y-81626190D01*
X127328571Y-81864285D01*
X127376190Y-81959523D01*
X126947619Y-82435714D02*
X127614285Y-82435714D01*
X127423809Y-82435714D02*
X127519047Y-82483333D01*
X127566666Y-82530952D01*
X127614285Y-82626190D01*
X127614285Y-82721428D01*
X126947619Y-83483333D02*
X127471428Y-83483333D01*
X127566666Y-83435714D01*
X127614285Y-83340476D01*
X127614285Y-83150000D01*
X127566666Y-83054761D01*
X126995238Y-83483333D02*
X126947619Y-83388095D01*
X126947619Y-83150000D01*
X126995238Y-83054761D01*
X127090476Y-83007142D01*
X127185714Y-83007142D01*
X127280952Y-83054761D01*
X127328571Y-83150000D01*
X127328571Y-83388095D01*
X127376190Y-83483333D01*
X126947619Y-84388095D02*
X127947619Y-84388095D01*
X126995238Y-84388095D02*
X126947619Y-84292857D01*
X126947619Y-84102380D01*
X126995238Y-84007142D01*
X127042857Y-83959523D01*
X127138095Y-83911904D01*
X127423809Y-83911904D01*
X127519047Y-83959523D01*
X127566666Y-84007142D01*
X127614285Y-84102380D01*
X127614285Y-84292857D01*
X127566666Y-84388095D01*
X126947619Y-84864285D02*
X127614285Y-84864285D01*
X127947619Y-84864285D02*
X127900000Y-84816666D01*
X127852380Y-84864285D01*
X127900000Y-84911904D01*
X127947619Y-84864285D01*
X127852380Y-84864285D01*
X126995238Y-85292857D02*
X126947619Y-85388095D01*
X126947619Y-85578571D01*
X126995238Y-85673809D01*
X127090476Y-85721428D01*
X127138095Y-85721428D01*
X127233333Y-85673809D01*
X127280952Y-85578571D01*
X127280952Y-85435714D01*
X127328571Y-85340476D01*
X127423809Y-85292857D01*
X127471428Y-85292857D01*
X127566666Y-85340476D01*
X127614285Y-85435714D01*
X127614285Y-85578571D01*
X127566666Y-85673809D01*
X127042857Y-86150000D02*
X126995238Y-86197619D01*
X126947619Y-86150000D01*
X126995238Y-86102380D01*
X127042857Y-86150000D01*
X126947619Y-86150000D01*
X126995238Y-87054761D02*
X126947619Y-86959523D01*
X126947619Y-86769047D01*
X126995238Y-86673809D01*
X127042857Y-86626190D01*
X127138095Y-86578571D01*
X127423809Y-86578571D01*
X127519047Y-86626190D01*
X127566666Y-86673809D01*
X127614285Y-86769047D01*
X127614285Y-86959523D01*
X127566666Y-87054761D01*
X126947619Y-87626190D02*
X126995238Y-87530952D01*
X127042857Y-87483333D01*
X127138095Y-87435714D01*
X127423809Y-87435714D01*
X127519047Y-87483333D01*
X127566666Y-87530952D01*
X127614285Y-87626190D01*
X127614285Y-87769047D01*
X127566666Y-87864285D01*
X127519047Y-87911904D01*
X127423809Y-87959523D01*
X127138095Y-87959523D01*
X127042857Y-87911904D01*
X126995238Y-87864285D01*
X126947619Y-87769047D01*
X126947619Y-87626190D01*
X126947619Y-88388095D02*
X127614285Y-88388095D01*
X127519047Y-88388095D02*
X127566666Y-88435714D01*
X127614285Y-88530952D01*
X127614285Y-88673809D01*
X127566666Y-88769047D01*
X127471428Y-88816666D01*
X126947619Y-88816666D01*
X127471428Y-88816666D02*
X127566666Y-88864285D01*
X127614285Y-88959523D01*
X127614285Y-89102380D01*
X127566666Y-89197619D01*
X127471428Y-89245238D01*
X126947619Y-89245238D01*
D10*
%TO.C,R2*%
X132152380Y-69766666D02*
X131676190Y-70100000D01*
X132152380Y-70338095D02*
X131152380Y-70338095D01*
X131152380Y-69957142D01*
X131200000Y-69861904D01*
X131247619Y-69814285D01*
X131342857Y-69766666D01*
X131485714Y-69766666D01*
X131580952Y-69814285D01*
X131628571Y-69861904D01*
X131676190Y-69957142D01*
X131676190Y-70338095D01*
X131247619Y-69385714D02*
X131200000Y-69338095D01*
X131152380Y-69242857D01*
X131152380Y-69004761D01*
X131200000Y-68909523D01*
X131247619Y-68861904D01*
X131342857Y-68814285D01*
X131438095Y-68814285D01*
X131580952Y-68861904D01*
X132152380Y-69433333D01*
X132152380Y-68814285D01*
%TO.C,R1*%
X134733333Y-68352380D02*
X134400000Y-67876190D01*
X134161904Y-68352380D02*
X134161904Y-67352380D01*
X134542857Y-67352380D01*
X134638095Y-67400000D01*
X134685714Y-67447619D01*
X134733333Y-67542857D01*
X134733333Y-67685714D01*
X134685714Y-67780952D01*
X134638095Y-67828571D01*
X134542857Y-67876190D01*
X134161904Y-67876190D01*
X135685714Y-68352380D02*
X135114285Y-68352380D01*
X135400000Y-68352380D02*
X135400000Y-67352380D01*
X135304761Y-67495238D01*
X135209523Y-67590476D01*
X135114285Y-67638095D01*
%TO.C,Q1*%
X137454761Y-66797619D02*
X137359523Y-66750000D01*
X137264285Y-66654761D01*
X137121428Y-66511904D01*
X137026190Y-66464285D01*
X136930952Y-66464285D01*
X136978571Y-66702380D02*
X136883333Y-66654761D01*
X136788095Y-66559523D01*
X136740476Y-66369047D01*
X136740476Y-66035714D01*
X136788095Y-65845238D01*
X136883333Y-65750000D01*
X136978571Y-65702380D01*
X137169047Y-65702380D01*
X137264285Y-65750000D01*
X137359523Y-65845238D01*
X137407142Y-66035714D01*
X137407142Y-66369047D01*
X137359523Y-66559523D01*
X137264285Y-66654761D01*
X137169047Y-66702380D01*
X136978571Y-66702380D01*
X138359523Y-66702380D02*
X137788095Y-66702380D01*
X138073809Y-66702380D02*
X138073809Y-65702380D01*
X137978571Y-65845238D01*
X137883333Y-65940476D01*
X137788095Y-65988095D01*
%TO.C,J3*%
X133566666Y-65752380D02*
X133566666Y-66466666D01*
X133519047Y-66609523D01*
X133423809Y-66704761D01*
X133280952Y-66752380D01*
X133185714Y-66752380D01*
X133947619Y-65752380D02*
X134566666Y-65752380D01*
X134233333Y-66133333D01*
X134376190Y-66133333D01*
X134471428Y-66180952D01*
X134519047Y-66228571D01*
X134566666Y-66323809D01*
X134566666Y-66561904D01*
X134519047Y-66657142D01*
X134471428Y-66704761D01*
X134376190Y-66752380D01*
X134090476Y-66752380D01*
X133995238Y-66704761D01*
X133947619Y-66657142D01*
%TO.C,J2*%
X141666666Y-64852380D02*
X141666666Y-65566666D01*
X141619047Y-65709523D01*
X141523809Y-65804761D01*
X141380952Y-65852380D01*
X141285714Y-65852380D01*
X142095238Y-64947619D02*
X142142857Y-64900000D01*
X142238095Y-64852380D01*
X142476190Y-64852380D01*
X142571428Y-64900000D01*
X142619047Y-64947619D01*
X142666666Y-65042857D01*
X142666666Y-65138095D01*
X142619047Y-65280952D01*
X142047619Y-65852380D01*
X142666666Y-65852380D01*
D12*
%TO.C,R2*%
X129077064Y-70285000D02*
X128622936Y-70285000D01*
X129077064Y-68815000D02*
X128622936Y-68815000D01*
%TO.C,R1*%
X134807064Y-70265000D02*
X134352936Y-70265000D01*
X134807064Y-68795000D02*
X134352936Y-68795000D01*
%TO.C,Q1*%
X138750000Y-67050000D02*
X140600000Y-67050000D01*
X138750000Y-70100000D02*
X138750000Y-69100000D01*
X138770000Y-70110000D02*
X141200000Y-70110000D01*
X138750000Y-68100000D02*
X138750000Y-67050000D01*
%TO.C,J3*%
X128750000Y-67930000D02*
X127420000Y-67930000D01*
X132620000Y-67930000D02*
X132620000Y-65270000D01*
X130020000Y-67930000D02*
X132620000Y-67930000D01*
X130020000Y-67930000D02*
X130020000Y-65270000D01*
X127420000Y-67930000D02*
X127420000Y-66600000D01*
X130020000Y-65270000D02*
X132620000Y-65270000D01*
%TO.C,J2*%
X130020000Y-64080000D02*
X142780000Y-64080000D01*
X128750000Y-64080000D02*
X127420000Y-64080000D01*
X127420000Y-64080000D02*
X127420000Y-62750000D01*
X130020000Y-64080000D02*
X130020000Y-61420000D01*
X142780000Y-64080000D02*
X142780000Y-61420000D01*
X130020000Y-61420000D02*
X142780000Y-61420000D01*
%TO.C,J1*%
X128600000Y-89300000D02*
X128600000Y-82520000D01*
D13*
X141800000Y-89290000D02*
X141800000Y-89300000D01*
D12*
X141800000Y-71300000D02*
X141800000Y-80320000D01*
D13*
X141800000Y-89180000D02*
X141800000Y-89300000D01*
D12*
X141800000Y-89300000D02*
X141800000Y-82520000D01*
X141800000Y-89300000D02*
X128600000Y-89300000D01*
X128130000Y-73300000D02*
X128130000Y-71770000D01*
D13*
X128600000Y-80250000D02*
X128600000Y-80320000D01*
D12*
X128600000Y-80320000D02*
X128600000Y-71300000D01*
X128600000Y-71300000D02*
X141800000Y-71300000D01*
%TD*%
M02*
