%TF.GenerationSoftware,KiCad,Pcbnew,6.0.2+dfsg-1*%
%TF.CreationDate,2022-09-01T21:53:15+02:00*%
%TF.ProjectId,p1-interface,70312d69-6e74-4657-9266-6163652e6b69,rev?*%
%TF.SameCoordinates,Original*%
%TF.FileFunction,Copper,L2,Bot*%
%TF.FilePolarity,Positive*%
%FSLAX46Y46*%
G04 Gerber Fmt 4.6, Leading zero omitted, Abs format (unit mm)*
G04 Created by KiCad (PCBNEW 6.0.2+dfsg-1) date 2022-09-01 21:53:15*
%MOMM*%
%LPD*%
G01*
G04 APERTURE LIST*
%TA.AperFunction,ComponentPad*%
%ADD10R,1.700000X1.700000*%
%TD*%
%TA.AperFunction,ComponentPad*%
%ADD11O,1.700000X1.700000*%
%TD*%
%TA.AperFunction,ComponentPad*%
%ADD12R,1.520000X1.520000*%
%TD*%
%TA.AperFunction,ComponentPad*%
%ADD13C,1.520000*%
%TD*%
%TA.AperFunction,ViaPad*%
%ADD14C,0.800000*%
%TD*%
G04 APERTURE END LIST*
D10*
%TO.P,J3,1,Pin_1*%
%TO.N,Net-(J2-Pad1)*%
X128750000Y-66600000D03*
D11*
%TO.P,J3,2,Pin_2*%
%TO.N,+5V*%
X131290000Y-66600000D03*
%TD*%
D10*
%TO.P,J2,1,Pin_1*%
%TO.N,Net-(J2-Pad1)*%
X128750000Y-62750000D03*
D11*
%TO.P,J2,2,Pin_2*%
%TO.N,+3V3*%
X131290000Y-62750000D03*
%TO.P,J2,3,Pin_3*%
X133830000Y-62750000D03*
%TO.P,J2,4,Pin_4*%
%TO.N,unconnected-(J2-Pad4)*%
X136370000Y-62750000D03*
%TO.P,J2,5,Pin_5*%
%TO.N,/rx*%
X138910000Y-62750000D03*
%TO.P,J2,6,Pin_6*%
%TO.N,GND*%
X141450000Y-62750000D03*
%TD*%
D12*
%TO.P,J1,1*%
%TO.N,+5V*%
X132030000Y-72530000D03*
D13*
%TO.P,J1,2*%
X133300000Y-75070000D03*
%TO.P,J1,3*%
%TO.N,GND*%
X134570000Y-72530000D03*
%TO.P,J1,4*%
%TO.N,unconnected-(J1-Pad4)*%
X135840000Y-75070000D03*
%TO.P,J1,5*%
%TO.N,Net-(J1-Pad5)*%
X137110000Y-72530000D03*
%TO.P,J1,6*%
%TO.N,GND*%
X138380000Y-75070000D03*
%TD*%
D14*
%TO.N,GND*%
X141050000Y-88050000D03*
X129800000Y-88250000D03*
X139200000Y-65350000D03*
%TD*%
%TA.AperFunction,Conductor*%
%TO.N,GND*%
G36*
X143734121Y-61078002D02*
G01*
X143780614Y-61131658D01*
X143792000Y-61184000D01*
X143792000Y-89417763D01*
X143771998Y-89485884D01*
X143718342Y-89532377D01*
X143666351Y-89543763D01*
X143561784Y-89544054D01*
X126983276Y-89590235D01*
X126915101Y-89570422D01*
X126868459Y-89516896D01*
X126856926Y-89464448D01*
X126843542Y-81554277D01*
X127985735Y-81554277D01*
X128023705Y-81842687D01*
X128100465Y-82123276D01*
X128214596Y-82390852D01*
X128363985Y-82640462D01*
X128366669Y-82643813D01*
X128366671Y-82643815D01*
X128381322Y-82662102D01*
X128545867Y-82867489D01*
X128756878Y-83067731D01*
X128993113Y-83237483D01*
X129250200Y-83373603D01*
X129254223Y-83375075D01*
X129254227Y-83375077D01*
X129278709Y-83384036D01*
X129523382Y-83473574D01*
X129807604Y-83535544D01*
X129836650Y-83537830D01*
X130033297Y-83553307D01*
X130033304Y-83553307D01*
X130035753Y-83553500D01*
X130193121Y-83553500D01*
X130195257Y-83553354D01*
X130195268Y-83553354D01*
X130405949Y-83538991D01*
X130405955Y-83538990D01*
X130410226Y-83538699D01*
X130414421Y-83537830D01*
X130414423Y-83537830D01*
X130552654Y-83509204D01*
X130695081Y-83479709D01*
X130969295Y-83382605D01*
X131227793Y-83249184D01*
X131231294Y-83246723D01*
X131231298Y-83246721D01*
X131346792Y-83165550D01*
X131465792Y-83081915D01*
X131678888Y-82883894D01*
X131689895Y-82870447D01*
X131860423Y-82662102D01*
X131863139Y-82658784D01*
X132015133Y-82410752D01*
X132023869Y-82390852D01*
X132130334Y-82148315D01*
X132132059Y-82144386D01*
X132138073Y-82123276D01*
X132157782Y-82054087D01*
X132211754Y-81864616D01*
X132214286Y-81846829D01*
X132252137Y-81580870D01*
X132252742Y-81576619D01*
X132252859Y-81554277D01*
X138145735Y-81554277D01*
X138183705Y-81842687D01*
X138260465Y-82123276D01*
X138374596Y-82390852D01*
X138523985Y-82640462D01*
X138526669Y-82643813D01*
X138526671Y-82643815D01*
X138541322Y-82662102D01*
X138705867Y-82867489D01*
X138916878Y-83067731D01*
X139153113Y-83237483D01*
X139410200Y-83373603D01*
X139414223Y-83375075D01*
X139414227Y-83375077D01*
X139438709Y-83384036D01*
X139683382Y-83473574D01*
X139967604Y-83535544D01*
X139996650Y-83537830D01*
X140193297Y-83553307D01*
X140193304Y-83553307D01*
X140195753Y-83553500D01*
X140353121Y-83553500D01*
X140355257Y-83553354D01*
X140355268Y-83553354D01*
X140565949Y-83538991D01*
X140565955Y-83538990D01*
X140570226Y-83538699D01*
X140574421Y-83537830D01*
X140574423Y-83537830D01*
X140712654Y-83509204D01*
X140855081Y-83479709D01*
X141129295Y-83382605D01*
X141387793Y-83249184D01*
X141391294Y-83246723D01*
X141391298Y-83246721D01*
X141506792Y-83165550D01*
X141625792Y-83081915D01*
X141838888Y-82883894D01*
X141849895Y-82870447D01*
X142020423Y-82662102D01*
X142023139Y-82658784D01*
X142175133Y-82410752D01*
X142183869Y-82390852D01*
X142290334Y-82148315D01*
X142292059Y-82144386D01*
X142298073Y-82123276D01*
X142317782Y-82054087D01*
X142371754Y-81864616D01*
X142374286Y-81846829D01*
X142412137Y-81580870D01*
X142412742Y-81576619D01*
X142414265Y-81285723D01*
X142376295Y-80997313D01*
X142299535Y-80716724D01*
X142185404Y-80449148D01*
X142036015Y-80199538D01*
X142021337Y-80181216D01*
X141856823Y-79975869D01*
X141854133Y-79972511D01*
X141643122Y-79772269D01*
X141406887Y-79602517D01*
X141149800Y-79466397D01*
X141145777Y-79464925D01*
X141145773Y-79464923D01*
X140880649Y-79367901D01*
X140880647Y-79367900D01*
X140876618Y-79366426D01*
X140592396Y-79304456D01*
X140548598Y-79301009D01*
X140366703Y-79286693D01*
X140366696Y-79286693D01*
X140364247Y-79286500D01*
X140206879Y-79286500D01*
X140204743Y-79286646D01*
X140204732Y-79286646D01*
X139994051Y-79301009D01*
X139994045Y-79301010D01*
X139989774Y-79301301D01*
X139985579Y-79302170D01*
X139985577Y-79302170D01*
X139970130Y-79305369D01*
X139704919Y-79360291D01*
X139430705Y-79457395D01*
X139172207Y-79590816D01*
X139168706Y-79593277D01*
X139168702Y-79593279D01*
X139155558Y-79602517D01*
X138934208Y-79758085D01*
X138721112Y-79956106D01*
X138718398Y-79959422D01*
X138718395Y-79959425D01*
X138704936Y-79975869D01*
X138536861Y-80181216D01*
X138384867Y-80429248D01*
X138383148Y-80433165D01*
X138383146Y-80433168D01*
X138374397Y-80453100D01*
X138267941Y-80695614D01*
X138266765Y-80699742D01*
X138266764Y-80699745D01*
X138242218Y-80785913D01*
X138188246Y-80975384D01*
X138187642Y-80979626D01*
X138187641Y-80979632D01*
X138185125Y-80997313D01*
X138147258Y-81263381D01*
X138145735Y-81554277D01*
X132252859Y-81554277D01*
X132254265Y-81285723D01*
X132216295Y-80997313D01*
X132139535Y-80716724D01*
X132025404Y-80449148D01*
X131876015Y-80199538D01*
X131861337Y-80181216D01*
X131696823Y-79975869D01*
X131694133Y-79972511D01*
X131483122Y-79772269D01*
X131246887Y-79602517D01*
X130989800Y-79466397D01*
X130985777Y-79464925D01*
X130985773Y-79464923D01*
X130720649Y-79367901D01*
X130720647Y-79367900D01*
X130716618Y-79366426D01*
X130432396Y-79304456D01*
X130388598Y-79301009D01*
X130206703Y-79286693D01*
X130206696Y-79286693D01*
X130204247Y-79286500D01*
X130046879Y-79286500D01*
X130044743Y-79286646D01*
X130044732Y-79286646D01*
X129834051Y-79301009D01*
X129834045Y-79301010D01*
X129829774Y-79301301D01*
X129825579Y-79302170D01*
X129825577Y-79302170D01*
X129810130Y-79305369D01*
X129544919Y-79360291D01*
X129270705Y-79457395D01*
X129012207Y-79590816D01*
X129008706Y-79593277D01*
X129008702Y-79593279D01*
X128995558Y-79602517D01*
X128774208Y-79758085D01*
X128561112Y-79956106D01*
X128558398Y-79959422D01*
X128558395Y-79959425D01*
X128544936Y-79975869D01*
X128376861Y-80181216D01*
X128224867Y-80429248D01*
X128223148Y-80433165D01*
X128223146Y-80433168D01*
X128214397Y-80453100D01*
X128107941Y-80695614D01*
X128106765Y-80699742D01*
X128106764Y-80699745D01*
X128082218Y-80785913D01*
X128028246Y-80975384D01*
X128027642Y-80979626D01*
X128027641Y-80979632D01*
X128025125Y-80997313D01*
X127987258Y-81263381D01*
X127985735Y-81554277D01*
X126843542Y-81554277D01*
X126829640Y-73338134D01*
X130761500Y-73338134D01*
X130768255Y-73400316D01*
X130819385Y-73536705D01*
X130906739Y-73653261D01*
X131023295Y-73740615D01*
X131159684Y-73791745D01*
X131221866Y-73798500D01*
X132504708Y-73798500D01*
X132572829Y-73818502D01*
X132619322Y-73872158D01*
X132629426Y-73942432D01*
X132599932Y-74007012D01*
X132576979Y-74027713D01*
X132486021Y-74091402D01*
X132486018Y-74091404D01*
X132481510Y-74094561D01*
X132324561Y-74251510D01*
X132321404Y-74256018D01*
X132321402Y-74256021D01*
X132230034Y-74386509D01*
X132197251Y-74433328D01*
X132194928Y-74438310D01*
X132194925Y-74438315D01*
X132119852Y-74599310D01*
X132103447Y-74634490D01*
X132102025Y-74639798D01*
X132102024Y-74639800D01*
X132084430Y-74705461D01*
X132046000Y-74848886D01*
X132026655Y-75070000D01*
X132046000Y-75291114D01*
X132047424Y-75296427D01*
X132047424Y-75296429D01*
X132086436Y-75442022D01*
X132103447Y-75505510D01*
X132105769Y-75510490D01*
X132105770Y-75510492D01*
X132194925Y-75701685D01*
X132194928Y-75701690D01*
X132197251Y-75706672D01*
X132200407Y-75711179D01*
X132200408Y-75711181D01*
X132232041Y-75756357D01*
X132324561Y-75888490D01*
X132481510Y-76045439D01*
X132486018Y-76048596D01*
X132486021Y-76048598D01*
X132561687Y-76101580D01*
X132663327Y-76172749D01*
X132668309Y-76175072D01*
X132668314Y-76175075D01*
X132858498Y-76263759D01*
X132864490Y-76266553D01*
X132869798Y-76267975D01*
X132869800Y-76267976D01*
X133073571Y-76322576D01*
X133073573Y-76322576D01*
X133078886Y-76324000D01*
X133300000Y-76343345D01*
X133521114Y-76324000D01*
X133526427Y-76322576D01*
X133526429Y-76322576D01*
X133730200Y-76267976D01*
X133730202Y-76267975D01*
X133735510Y-76266553D01*
X133741502Y-76263759D01*
X133931686Y-76175075D01*
X133931691Y-76175072D01*
X133936673Y-76172749D01*
X134038313Y-76101580D01*
X134113979Y-76048598D01*
X134113982Y-76048596D01*
X134118490Y-76045439D01*
X134275439Y-75888490D01*
X134367960Y-75756357D01*
X134399592Y-75711181D01*
X134399593Y-75711179D01*
X134402749Y-75706672D01*
X134405072Y-75701690D01*
X134405075Y-75701685D01*
X134455805Y-75592894D01*
X134502723Y-75539609D01*
X134571000Y-75520148D01*
X134638960Y-75540690D01*
X134684195Y-75592894D01*
X134734925Y-75701685D01*
X134734928Y-75701690D01*
X134737251Y-75706672D01*
X134740407Y-75711179D01*
X134740408Y-75711181D01*
X134772041Y-75756357D01*
X134864561Y-75888490D01*
X135021510Y-76045439D01*
X135026018Y-76048596D01*
X135026021Y-76048598D01*
X135101687Y-76101580D01*
X135203327Y-76172749D01*
X135208309Y-76175072D01*
X135208314Y-76175075D01*
X135398498Y-76263759D01*
X135404490Y-76266553D01*
X135409798Y-76267975D01*
X135409800Y-76267976D01*
X135613571Y-76322576D01*
X135613573Y-76322576D01*
X135618886Y-76324000D01*
X135840000Y-76343345D01*
X136061114Y-76324000D01*
X136066427Y-76322576D01*
X136066429Y-76322576D01*
X136270200Y-76267976D01*
X136270202Y-76267975D01*
X136275510Y-76266553D01*
X136281502Y-76263759D01*
X136471686Y-76175075D01*
X136471691Y-76175072D01*
X136476673Y-76172749D01*
X136541521Y-76127342D01*
X137687213Y-76127342D01*
X137696509Y-76139357D01*
X137739069Y-76169158D01*
X137748565Y-76174641D01*
X137939680Y-76263759D01*
X137949972Y-76267505D01*
X138153660Y-76322083D01*
X138164453Y-76323986D01*
X138374525Y-76342365D01*
X138385475Y-76342365D01*
X138595547Y-76323986D01*
X138606340Y-76322083D01*
X138810028Y-76267505D01*
X138820320Y-76263759D01*
X139011435Y-76174641D01*
X139020931Y-76169158D01*
X139064329Y-76138770D01*
X139072704Y-76128293D01*
X139065635Y-76114845D01*
X138392812Y-75442022D01*
X138378868Y-75434408D01*
X138377035Y-75434539D01*
X138370420Y-75438790D01*
X137693643Y-76115567D01*
X137687213Y-76127342D01*
X136541521Y-76127342D01*
X136578313Y-76101580D01*
X136653979Y-76048598D01*
X136653982Y-76048596D01*
X136658490Y-76045439D01*
X136815439Y-75888490D01*
X136907960Y-75756357D01*
X136939592Y-75711181D01*
X136939593Y-75711179D01*
X136942749Y-75706672D01*
X136945072Y-75701690D01*
X136945075Y-75701685D01*
X136970984Y-75646122D01*
X136996081Y-75592302D01*
X137042997Y-75539018D01*
X137111274Y-75519557D01*
X137179234Y-75540099D01*
X137224470Y-75592303D01*
X137275359Y-75701435D01*
X137280842Y-75710931D01*
X137311230Y-75754329D01*
X137321707Y-75762704D01*
X137335155Y-75755635D01*
X138007978Y-75082812D01*
X138014356Y-75071132D01*
X138744408Y-75071132D01*
X138744539Y-75072965D01*
X138748790Y-75079580D01*
X139425567Y-75756357D01*
X139437342Y-75762787D01*
X139449357Y-75753491D01*
X139479158Y-75710931D01*
X139484641Y-75701435D01*
X139573759Y-75510320D01*
X139577505Y-75500028D01*
X139632083Y-75296340D01*
X139633986Y-75285547D01*
X139652365Y-75075475D01*
X139652365Y-75064525D01*
X139633986Y-74854453D01*
X139632083Y-74843660D01*
X139577505Y-74639972D01*
X139573759Y-74629680D01*
X139484641Y-74438565D01*
X139479158Y-74429069D01*
X139448770Y-74385671D01*
X139438293Y-74377296D01*
X139424845Y-74384365D01*
X138752022Y-75057188D01*
X138744408Y-75071132D01*
X138014356Y-75071132D01*
X138015592Y-75068868D01*
X138015461Y-75067035D01*
X138011210Y-75060420D01*
X137334433Y-74383643D01*
X137322658Y-74377213D01*
X137310643Y-74386509D01*
X137280842Y-74429069D01*
X137275359Y-74438565D01*
X137224470Y-74547697D01*
X137177552Y-74600982D01*
X137109275Y-74620443D01*
X137041315Y-74599901D01*
X136996080Y-74547697D01*
X136995805Y-74547106D01*
X136970984Y-74493878D01*
X136945075Y-74438315D01*
X136945072Y-74438310D01*
X136942749Y-74433328D01*
X136909966Y-74386509D01*
X136818598Y-74256021D01*
X136818596Y-74256018D01*
X136815439Y-74251510D01*
X136658490Y-74094561D01*
X136653982Y-74091404D01*
X136653979Y-74091402D01*
X136558337Y-74024433D01*
X136540162Y-74011707D01*
X137687296Y-74011707D01*
X137694365Y-74025155D01*
X138367188Y-74697978D01*
X138381132Y-74705592D01*
X138382965Y-74705461D01*
X138389580Y-74701210D01*
X139066357Y-74024433D01*
X139072787Y-74012658D01*
X139063491Y-74000643D01*
X139020931Y-73970842D01*
X139011435Y-73965359D01*
X138820320Y-73876241D01*
X138810028Y-73872495D01*
X138606340Y-73817917D01*
X138595547Y-73816014D01*
X138385475Y-73797635D01*
X138374525Y-73797635D01*
X138164453Y-73816014D01*
X138153660Y-73817917D01*
X137949972Y-73872495D01*
X137939680Y-73876241D01*
X137748565Y-73965359D01*
X137739069Y-73970842D01*
X137695671Y-74001230D01*
X137687296Y-74011707D01*
X136540162Y-74011707D01*
X136476673Y-73967251D01*
X136471691Y-73964928D01*
X136471686Y-73964925D01*
X136280492Y-73875770D01*
X136280491Y-73875769D01*
X136275510Y-73873447D01*
X136270202Y-73872025D01*
X136270200Y-73872024D01*
X136066429Y-73817424D01*
X136066427Y-73817424D01*
X136061114Y-73816000D01*
X135840000Y-73796655D01*
X135618886Y-73816000D01*
X135613573Y-73817424D01*
X135613571Y-73817424D01*
X135409800Y-73872024D01*
X135409798Y-73872025D01*
X135404490Y-73873447D01*
X135399510Y-73875769D01*
X135399508Y-73875770D01*
X135208315Y-73964925D01*
X135208310Y-73964928D01*
X135203328Y-73967251D01*
X135198821Y-73970407D01*
X135198819Y-73970408D01*
X135026021Y-74091402D01*
X135026018Y-74091404D01*
X135021510Y-74094561D01*
X134864561Y-74251510D01*
X134861404Y-74256018D01*
X134861402Y-74256021D01*
X134770034Y-74386509D01*
X134737251Y-74433328D01*
X134734928Y-74438310D01*
X134734925Y-74438315D01*
X134684195Y-74547106D01*
X134637277Y-74600391D01*
X134569000Y-74619852D01*
X134501040Y-74599310D01*
X134455805Y-74547106D01*
X134405075Y-74438315D01*
X134405072Y-74438310D01*
X134402749Y-74433328D01*
X134369966Y-74386509D01*
X134278598Y-74256021D01*
X134278596Y-74256018D01*
X134275439Y-74251510D01*
X134118490Y-74094561D01*
X134113982Y-74091404D01*
X134113979Y-74091402D01*
X134018337Y-74024433D01*
X133936673Y-73967251D01*
X133931691Y-73964928D01*
X133931686Y-73964925D01*
X133740492Y-73875770D01*
X133740491Y-73875769D01*
X133735510Y-73873447D01*
X133730202Y-73872025D01*
X133730200Y-73872024D01*
X133526429Y-73817424D01*
X133526427Y-73817424D01*
X133521114Y-73816000D01*
X133300000Y-73796655D01*
X133296682Y-73796945D01*
X133229204Y-73777132D01*
X133182711Y-73723476D01*
X133172607Y-73653202D01*
X133196499Y-73595569D01*
X133202665Y-73587342D01*
X133877213Y-73587342D01*
X133886509Y-73599357D01*
X133929069Y-73629158D01*
X133938565Y-73634641D01*
X134129680Y-73723759D01*
X134139972Y-73727505D01*
X134343660Y-73782083D01*
X134354453Y-73783986D01*
X134564525Y-73802365D01*
X134575475Y-73802365D01*
X134785547Y-73783986D01*
X134796340Y-73782083D01*
X135000028Y-73727505D01*
X135010320Y-73723759D01*
X135201435Y-73634641D01*
X135210931Y-73629158D01*
X135254329Y-73598770D01*
X135262704Y-73588293D01*
X135255635Y-73574845D01*
X134582812Y-72902022D01*
X134568868Y-72894408D01*
X134567035Y-72894539D01*
X134560420Y-72898790D01*
X133883643Y-73575567D01*
X133877213Y-73587342D01*
X133202665Y-73587342D01*
X133235229Y-73543892D01*
X133235230Y-73543890D01*
X133240615Y-73536705D01*
X133291745Y-73400316D01*
X133298500Y-73338134D01*
X133298500Y-73314303D01*
X133318502Y-73246182D01*
X133372158Y-73199689D01*
X133442432Y-73189585D01*
X133503170Y-73215881D01*
X133511706Y-73222704D01*
X133525155Y-73215635D01*
X134197978Y-72542812D01*
X134204356Y-72531132D01*
X134934408Y-72531132D01*
X134934539Y-72532965D01*
X134938790Y-72539580D01*
X135615567Y-73216357D01*
X135627342Y-73222787D01*
X135639357Y-73213491D01*
X135669158Y-73170931D01*
X135674641Y-73161435D01*
X135725530Y-73052303D01*
X135772448Y-72999018D01*
X135840725Y-72979557D01*
X135908685Y-73000099D01*
X135953920Y-73052303D01*
X136004925Y-73161685D01*
X136004928Y-73161690D01*
X136007251Y-73166672D01*
X136010407Y-73171179D01*
X136010408Y-73171181D01*
X136127310Y-73338134D01*
X136134561Y-73348490D01*
X136291510Y-73505439D01*
X136296018Y-73508596D01*
X136296021Y-73508598D01*
X136336162Y-73536705D01*
X136473327Y-73632749D01*
X136478309Y-73635072D01*
X136478314Y-73635075D01*
X136667891Y-73723476D01*
X136674490Y-73726553D01*
X136679798Y-73727975D01*
X136679800Y-73727976D01*
X136883571Y-73782576D01*
X136883573Y-73782576D01*
X136888886Y-73784000D01*
X137110000Y-73803345D01*
X137331114Y-73784000D01*
X137336427Y-73782576D01*
X137336429Y-73782576D01*
X137540200Y-73727976D01*
X137540202Y-73727975D01*
X137545510Y-73726553D01*
X137552109Y-73723476D01*
X137741686Y-73635075D01*
X137741691Y-73635072D01*
X137746673Y-73632749D01*
X137883838Y-73536705D01*
X137923979Y-73508598D01*
X137923982Y-73508596D01*
X137928490Y-73505439D01*
X138085439Y-73348490D01*
X138092691Y-73338134D01*
X138209592Y-73171181D01*
X138209593Y-73171179D01*
X138212749Y-73166672D01*
X138215072Y-73161690D01*
X138215075Y-73161685D01*
X138304230Y-72970492D01*
X138304231Y-72970490D01*
X138306553Y-72965510D01*
X138323565Y-72902022D01*
X138362576Y-72756429D01*
X138362576Y-72756427D01*
X138364000Y-72751114D01*
X138383345Y-72530000D01*
X138364000Y-72308886D01*
X138325570Y-72165461D01*
X138307976Y-72099800D01*
X138307975Y-72099798D01*
X138306553Y-72094490D01*
X138290424Y-72059901D01*
X138215075Y-71898315D01*
X138215072Y-71898310D01*
X138212749Y-71893328D01*
X138179447Y-71845768D01*
X138088598Y-71716021D01*
X138088596Y-71716018D01*
X138085439Y-71711510D01*
X137928490Y-71554561D01*
X137923982Y-71551404D01*
X137923979Y-71551402D01*
X137828337Y-71484433D01*
X137746673Y-71427251D01*
X137741691Y-71424928D01*
X137741686Y-71424925D01*
X137550492Y-71335770D01*
X137550491Y-71335769D01*
X137545510Y-71333447D01*
X137540202Y-71332025D01*
X137540200Y-71332024D01*
X137336429Y-71277424D01*
X137336427Y-71277424D01*
X137331114Y-71276000D01*
X137110000Y-71256655D01*
X136888886Y-71276000D01*
X136883573Y-71277424D01*
X136883571Y-71277424D01*
X136679800Y-71332024D01*
X136679798Y-71332025D01*
X136674490Y-71333447D01*
X136669510Y-71335769D01*
X136669508Y-71335770D01*
X136478315Y-71424925D01*
X136478310Y-71424928D01*
X136473328Y-71427251D01*
X136468821Y-71430407D01*
X136468819Y-71430408D01*
X136296021Y-71551402D01*
X136296018Y-71551404D01*
X136291510Y-71554561D01*
X136134561Y-71711510D01*
X136131404Y-71716018D01*
X136131402Y-71716021D01*
X136040553Y-71845768D01*
X136007251Y-71893328D01*
X136004928Y-71898310D01*
X136004925Y-71898315D01*
X135953920Y-72007697D01*
X135907003Y-72060982D01*
X135838726Y-72080443D01*
X135770766Y-72059901D01*
X135725530Y-72007697D01*
X135674641Y-71898565D01*
X135669158Y-71889069D01*
X135638770Y-71845671D01*
X135628293Y-71837296D01*
X135614845Y-71844365D01*
X134942022Y-72517188D01*
X134934408Y-72531132D01*
X134204356Y-72531132D01*
X134205592Y-72528868D01*
X134205461Y-72527035D01*
X134201210Y-72520420D01*
X133524433Y-71843643D01*
X133512658Y-71837213D01*
X133501600Y-71845768D01*
X133435482Y-71871631D01*
X133365877Y-71857643D01*
X133314885Y-71808244D01*
X133298500Y-71746111D01*
X133298500Y-71721866D01*
X133291745Y-71659684D01*
X133240615Y-71523295D01*
X133201952Y-71471707D01*
X133877296Y-71471707D01*
X133884365Y-71485155D01*
X134557188Y-72157978D01*
X134571132Y-72165592D01*
X134572965Y-72165461D01*
X134579580Y-72161210D01*
X135256357Y-71484433D01*
X135262787Y-71472658D01*
X135253491Y-71460643D01*
X135210931Y-71430842D01*
X135201435Y-71425359D01*
X135010320Y-71336241D01*
X135000028Y-71332495D01*
X134796340Y-71277917D01*
X134785547Y-71276014D01*
X134575475Y-71257635D01*
X134564525Y-71257635D01*
X134354453Y-71276014D01*
X134343660Y-71277917D01*
X134139972Y-71332495D01*
X134129680Y-71336241D01*
X133938565Y-71425359D01*
X133929069Y-71430842D01*
X133885671Y-71461230D01*
X133877296Y-71471707D01*
X133201952Y-71471707D01*
X133153261Y-71406739D01*
X133036705Y-71319385D01*
X132900316Y-71268255D01*
X132838134Y-71261500D01*
X131221866Y-71261500D01*
X131159684Y-71268255D01*
X131023295Y-71319385D01*
X130906739Y-71406739D01*
X130819385Y-71523295D01*
X130768255Y-71659684D01*
X130761500Y-71721866D01*
X130761500Y-73338134D01*
X126829640Y-73338134D01*
X126819758Y-67498134D01*
X127391500Y-67498134D01*
X127398255Y-67560316D01*
X127449385Y-67696705D01*
X127536739Y-67813261D01*
X127653295Y-67900615D01*
X127789684Y-67951745D01*
X127851866Y-67958500D01*
X129648134Y-67958500D01*
X129710316Y-67951745D01*
X129846705Y-67900615D01*
X129963261Y-67813261D01*
X130050615Y-67696705D01*
X130072799Y-67637529D01*
X130094598Y-67579382D01*
X130137240Y-67522618D01*
X130203802Y-67497918D01*
X130273150Y-67513126D01*
X130307817Y-67541114D01*
X130336250Y-67573938D01*
X130508126Y-67716632D01*
X130701000Y-67829338D01*
X130909692Y-67909030D01*
X130914760Y-67910061D01*
X130914763Y-67910062D01*
X131022017Y-67931883D01*
X131128597Y-67953567D01*
X131133772Y-67953757D01*
X131133774Y-67953757D01*
X131346673Y-67961564D01*
X131346677Y-67961564D01*
X131351837Y-67961753D01*
X131356957Y-67961097D01*
X131356959Y-67961097D01*
X131568288Y-67934025D01*
X131568289Y-67934025D01*
X131573416Y-67933368D01*
X131578366Y-67931883D01*
X131782429Y-67870661D01*
X131782434Y-67870659D01*
X131787384Y-67869174D01*
X131987994Y-67770896D01*
X132169860Y-67641173D01*
X132328096Y-67483489D01*
X132458453Y-67302077D01*
X132557430Y-67101811D01*
X132622370Y-66888069D01*
X132651529Y-66666590D01*
X132653156Y-66600000D01*
X132634852Y-66377361D01*
X132580431Y-66160702D01*
X132491354Y-65955840D01*
X132370014Y-65768277D01*
X132219670Y-65603051D01*
X132215619Y-65599852D01*
X132215615Y-65599848D01*
X132048414Y-65467800D01*
X132048410Y-65467798D01*
X132044359Y-65464598D01*
X131848789Y-65356638D01*
X131843920Y-65354914D01*
X131843916Y-65354912D01*
X131643087Y-65283795D01*
X131643083Y-65283794D01*
X131638212Y-65282069D01*
X131633119Y-65281162D01*
X131633116Y-65281161D01*
X131423373Y-65243800D01*
X131423367Y-65243799D01*
X131418284Y-65242894D01*
X131344452Y-65241992D01*
X131200081Y-65240228D01*
X131200079Y-65240228D01*
X131194911Y-65240165D01*
X130974091Y-65273955D01*
X130761756Y-65343357D01*
X130563607Y-65446507D01*
X130559474Y-65449610D01*
X130559471Y-65449612D01*
X130389100Y-65577530D01*
X130384965Y-65580635D01*
X130328537Y-65639684D01*
X130304283Y-65665064D01*
X130242759Y-65700494D01*
X130171846Y-65697037D01*
X130114060Y-65655791D01*
X130095207Y-65622243D01*
X130053767Y-65511703D01*
X130050615Y-65503295D01*
X129963261Y-65386739D01*
X129846705Y-65299385D01*
X129710316Y-65248255D01*
X129648134Y-65241500D01*
X127851866Y-65241500D01*
X127789684Y-65248255D01*
X127653295Y-65299385D01*
X127536739Y-65386739D01*
X127449385Y-65503295D01*
X127398255Y-65639684D01*
X127391500Y-65701866D01*
X127391500Y-67498134D01*
X126819758Y-67498134D01*
X126813244Y-63648134D01*
X127391500Y-63648134D01*
X127398255Y-63710316D01*
X127449385Y-63846705D01*
X127536739Y-63963261D01*
X127653295Y-64050615D01*
X127789684Y-64101745D01*
X127851866Y-64108500D01*
X129648134Y-64108500D01*
X129710316Y-64101745D01*
X129846705Y-64050615D01*
X129963261Y-63963261D01*
X130050615Y-63846705D01*
X130072799Y-63787529D01*
X130094598Y-63729382D01*
X130137240Y-63672618D01*
X130203802Y-63647918D01*
X130273150Y-63663126D01*
X130307817Y-63691114D01*
X130336250Y-63723938D01*
X130508126Y-63866632D01*
X130701000Y-63979338D01*
X130909692Y-64059030D01*
X130914760Y-64060061D01*
X130914763Y-64060062D01*
X131009862Y-64079410D01*
X131128597Y-64103567D01*
X131133772Y-64103757D01*
X131133774Y-64103757D01*
X131346673Y-64111564D01*
X131346677Y-64111564D01*
X131351837Y-64111753D01*
X131356957Y-64111097D01*
X131356959Y-64111097D01*
X131568288Y-64084025D01*
X131568289Y-64084025D01*
X131573416Y-64083368D01*
X131578366Y-64081883D01*
X131782429Y-64020661D01*
X131782434Y-64020659D01*
X131787384Y-64019174D01*
X131987994Y-63920896D01*
X132169860Y-63791173D01*
X132328096Y-63633489D01*
X132458453Y-63452077D01*
X132459776Y-63453028D01*
X132506645Y-63409857D01*
X132576580Y-63397625D01*
X132642026Y-63425144D01*
X132669875Y-63456994D01*
X132729987Y-63555088D01*
X132876250Y-63723938D01*
X133048126Y-63866632D01*
X133241000Y-63979338D01*
X133449692Y-64059030D01*
X133454760Y-64060061D01*
X133454763Y-64060062D01*
X133549862Y-64079410D01*
X133668597Y-64103567D01*
X133673772Y-64103757D01*
X133673774Y-64103757D01*
X133886673Y-64111564D01*
X133886677Y-64111564D01*
X133891837Y-64111753D01*
X133896957Y-64111097D01*
X133896959Y-64111097D01*
X134108288Y-64084025D01*
X134108289Y-64084025D01*
X134113416Y-64083368D01*
X134118366Y-64081883D01*
X134322429Y-64020661D01*
X134322434Y-64020659D01*
X134327384Y-64019174D01*
X134527994Y-63920896D01*
X134709860Y-63791173D01*
X134868096Y-63633489D01*
X134998453Y-63452077D01*
X134999776Y-63453028D01*
X135046645Y-63409857D01*
X135116580Y-63397625D01*
X135182026Y-63425144D01*
X135209875Y-63456994D01*
X135269987Y-63555088D01*
X135416250Y-63723938D01*
X135588126Y-63866632D01*
X135781000Y-63979338D01*
X135989692Y-64059030D01*
X135994760Y-64060061D01*
X135994763Y-64060062D01*
X136089862Y-64079410D01*
X136208597Y-64103567D01*
X136213772Y-64103757D01*
X136213774Y-64103757D01*
X136426673Y-64111564D01*
X136426677Y-64111564D01*
X136431837Y-64111753D01*
X136436957Y-64111097D01*
X136436959Y-64111097D01*
X136648288Y-64084025D01*
X136648289Y-64084025D01*
X136653416Y-64083368D01*
X136658366Y-64081883D01*
X136862429Y-64020661D01*
X136862434Y-64020659D01*
X136867384Y-64019174D01*
X137067994Y-63920896D01*
X137249860Y-63791173D01*
X137408096Y-63633489D01*
X137538453Y-63452077D01*
X137539776Y-63453028D01*
X137586645Y-63409857D01*
X137656580Y-63397625D01*
X137722026Y-63425144D01*
X137749875Y-63456994D01*
X137809987Y-63555088D01*
X137956250Y-63723938D01*
X138128126Y-63866632D01*
X138321000Y-63979338D01*
X138529692Y-64059030D01*
X138534760Y-64060061D01*
X138534763Y-64060062D01*
X138629862Y-64079410D01*
X138748597Y-64103567D01*
X138753772Y-64103757D01*
X138753774Y-64103757D01*
X138966673Y-64111564D01*
X138966677Y-64111564D01*
X138971837Y-64111753D01*
X138976957Y-64111097D01*
X138976959Y-64111097D01*
X139188288Y-64084025D01*
X139188289Y-64084025D01*
X139193416Y-64083368D01*
X139198366Y-64081883D01*
X139402429Y-64020661D01*
X139402434Y-64020659D01*
X139407384Y-64019174D01*
X139607994Y-63920896D01*
X139789860Y-63791173D01*
X139948096Y-63633489D01*
X140078453Y-63452077D01*
X140079640Y-63452930D01*
X140126960Y-63409362D01*
X140196897Y-63397145D01*
X140262338Y-63424678D01*
X140290166Y-63456511D01*
X140347694Y-63550388D01*
X140353777Y-63558699D01*
X140493213Y-63719667D01*
X140500580Y-63726883D01*
X140664434Y-63862916D01*
X140672881Y-63868831D01*
X140856756Y-63976279D01*
X140866042Y-63980729D01*
X141065001Y-64056703D01*
X141074899Y-64059579D01*
X141178250Y-64080606D01*
X141192299Y-64079410D01*
X141196000Y-64069065D01*
X141196000Y-64068517D01*
X141704000Y-64068517D01*
X141708064Y-64082359D01*
X141721478Y-64084393D01*
X141728184Y-64083534D01*
X141738262Y-64081392D01*
X141942255Y-64020191D01*
X141951842Y-64016433D01*
X142143095Y-63922739D01*
X142151945Y-63917464D01*
X142325328Y-63793792D01*
X142333200Y-63787139D01*
X142484052Y-63636812D01*
X142490730Y-63628965D01*
X142615003Y-63456020D01*
X142620313Y-63447183D01*
X142714670Y-63256267D01*
X142718469Y-63246672D01*
X142780377Y-63042910D01*
X142782555Y-63032837D01*
X142783986Y-63021962D01*
X142781775Y-63007778D01*
X142768617Y-63004000D01*
X141722115Y-63004000D01*
X141706876Y-63008475D01*
X141705671Y-63009865D01*
X141704000Y-63017548D01*
X141704000Y-64068517D01*
X141196000Y-64068517D01*
X141196000Y-62477885D01*
X141704000Y-62477885D01*
X141708475Y-62493124D01*
X141709865Y-62494329D01*
X141717548Y-62496000D01*
X142768344Y-62496000D01*
X142781875Y-62492027D01*
X142783180Y-62482947D01*
X142741214Y-62315875D01*
X142737894Y-62306124D01*
X142652972Y-62110814D01*
X142648105Y-62101739D01*
X142532426Y-61922926D01*
X142526136Y-61914757D01*
X142382806Y-61757240D01*
X142375273Y-61750215D01*
X142208139Y-61618222D01*
X142199552Y-61612517D01*
X142013117Y-61509599D01*
X142003705Y-61505369D01*
X141802959Y-61434280D01*
X141792988Y-61431646D01*
X141721837Y-61418972D01*
X141708540Y-61420432D01*
X141704000Y-61434989D01*
X141704000Y-62477885D01*
X141196000Y-62477885D01*
X141196000Y-61433102D01*
X141192082Y-61419758D01*
X141177806Y-61417771D01*
X141139324Y-61423660D01*
X141129288Y-61426051D01*
X140926868Y-61492212D01*
X140917359Y-61496209D01*
X140728463Y-61594542D01*
X140719738Y-61600036D01*
X140549433Y-61727905D01*
X140541726Y-61734748D01*
X140394590Y-61888717D01*
X140388109Y-61896722D01*
X140283498Y-62050074D01*
X140228587Y-62095076D01*
X140158062Y-62103247D01*
X140094315Y-62071993D01*
X140073618Y-62047509D01*
X139992822Y-61922617D01*
X139992820Y-61922614D01*
X139990014Y-61918277D01*
X139839670Y-61753051D01*
X139835619Y-61749852D01*
X139835615Y-61749848D01*
X139668414Y-61617800D01*
X139668410Y-61617798D01*
X139664359Y-61614598D01*
X139628028Y-61594542D01*
X139612136Y-61585769D01*
X139468789Y-61506638D01*
X139463920Y-61504914D01*
X139463916Y-61504912D01*
X139263087Y-61433795D01*
X139263083Y-61433794D01*
X139258212Y-61432069D01*
X139253119Y-61431162D01*
X139253116Y-61431161D01*
X139043373Y-61393800D01*
X139043367Y-61393799D01*
X139038284Y-61392894D01*
X138964452Y-61391992D01*
X138820081Y-61390228D01*
X138820079Y-61390228D01*
X138814911Y-61390165D01*
X138594091Y-61423955D01*
X138381756Y-61493357D01*
X138183607Y-61596507D01*
X138179474Y-61599610D01*
X138179471Y-61599612D01*
X138009100Y-61727530D01*
X138004965Y-61730635D01*
X138001393Y-61734373D01*
X137893729Y-61847037D01*
X137850629Y-61892138D01*
X137743201Y-62049621D01*
X137688293Y-62094621D01*
X137617768Y-62102792D01*
X137554021Y-62071538D01*
X137533324Y-62047054D01*
X137452822Y-61922617D01*
X137452820Y-61922614D01*
X137450014Y-61918277D01*
X137299670Y-61753051D01*
X137295619Y-61749852D01*
X137295615Y-61749848D01*
X137128414Y-61617800D01*
X137128410Y-61617798D01*
X137124359Y-61614598D01*
X137088028Y-61594542D01*
X137072136Y-61585769D01*
X136928789Y-61506638D01*
X136923920Y-61504914D01*
X136923916Y-61504912D01*
X136723087Y-61433795D01*
X136723083Y-61433794D01*
X136718212Y-61432069D01*
X136713119Y-61431162D01*
X136713116Y-61431161D01*
X136503373Y-61393800D01*
X136503367Y-61393799D01*
X136498284Y-61392894D01*
X136424452Y-61391992D01*
X136280081Y-61390228D01*
X136280079Y-61390228D01*
X136274911Y-61390165D01*
X136054091Y-61423955D01*
X135841756Y-61493357D01*
X135643607Y-61596507D01*
X135639474Y-61599610D01*
X135639471Y-61599612D01*
X135469100Y-61727530D01*
X135464965Y-61730635D01*
X135461393Y-61734373D01*
X135353729Y-61847037D01*
X135310629Y-61892138D01*
X135203201Y-62049621D01*
X135148293Y-62094621D01*
X135077768Y-62102792D01*
X135014021Y-62071538D01*
X134993324Y-62047054D01*
X134912822Y-61922617D01*
X134912820Y-61922614D01*
X134910014Y-61918277D01*
X134759670Y-61753051D01*
X134755619Y-61749852D01*
X134755615Y-61749848D01*
X134588414Y-61617800D01*
X134588410Y-61617798D01*
X134584359Y-61614598D01*
X134548028Y-61594542D01*
X134532136Y-61585769D01*
X134388789Y-61506638D01*
X134383920Y-61504914D01*
X134383916Y-61504912D01*
X134183087Y-61433795D01*
X134183083Y-61433794D01*
X134178212Y-61432069D01*
X134173119Y-61431162D01*
X134173116Y-61431161D01*
X133963373Y-61393800D01*
X133963367Y-61393799D01*
X133958284Y-61392894D01*
X133884452Y-61391992D01*
X133740081Y-61390228D01*
X133740079Y-61390228D01*
X133734911Y-61390165D01*
X133514091Y-61423955D01*
X133301756Y-61493357D01*
X133103607Y-61596507D01*
X133099474Y-61599610D01*
X133099471Y-61599612D01*
X132929100Y-61727530D01*
X132924965Y-61730635D01*
X132921393Y-61734373D01*
X132813729Y-61847037D01*
X132770629Y-61892138D01*
X132663201Y-62049621D01*
X132608293Y-62094621D01*
X132537768Y-62102792D01*
X132474021Y-62071538D01*
X132453324Y-62047054D01*
X132372822Y-61922617D01*
X132372820Y-61922614D01*
X132370014Y-61918277D01*
X132219670Y-61753051D01*
X132215619Y-61749852D01*
X132215615Y-61749848D01*
X132048414Y-61617800D01*
X132048410Y-61617798D01*
X132044359Y-61614598D01*
X132008028Y-61594542D01*
X131992136Y-61585769D01*
X131848789Y-61506638D01*
X131843920Y-61504914D01*
X131843916Y-61504912D01*
X131643087Y-61433795D01*
X131643083Y-61433794D01*
X131638212Y-61432069D01*
X131633119Y-61431162D01*
X131633116Y-61431161D01*
X131423373Y-61393800D01*
X131423367Y-61393799D01*
X131418284Y-61392894D01*
X131344452Y-61391992D01*
X131200081Y-61390228D01*
X131200079Y-61390228D01*
X131194911Y-61390165D01*
X130974091Y-61423955D01*
X130761756Y-61493357D01*
X130563607Y-61596507D01*
X130559474Y-61599610D01*
X130559471Y-61599612D01*
X130389100Y-61727530D01*
X130384965Y-61730635D01*
X130328537Y-61789684D01*
X130304283Y-61815064D01*
X130242759Y-61850494D01*
X130171846Y-61847037D01*
X130114060Y-61805791D01*
X130095207Y-61772243D01*
X130053767Y-61661703D01*
X130050615Y-61653295D01*
X129963261Y-61536739D01*
X129846705Y-61449385D01*
X129710316Y-61398255D01*
X129648134Y-61391500D01*
X127851866Y-61391500D01*
X127789684Y-61398255D01*
X127653295Y-61449385D01*
X127536739Y-61536739D01*
X127449385Y-61653295D01*
X127398255Y-61789684D01*
X127391500Y-61851866D01*
X127391500Y-63648134D01*
X126813244Y-63648134D01*
X126809075Y-61184213D01*
X126828962Y-61116059D01*
X126882539Y-61069475D01*
X126935075Y-61058000D01*
X143666000Y-61058000D01*
X143734121Y-61078002D01*
G37*
%TD.AperFunction*%
%TD*%
M02*
